<svg width="99" height="99" viewBox="0 0 99 99" fill="none" xmlns="http://www.w3.org/2000/svg">
<path d="M28.6885 4.04884C28.6885 4.04884 29.952 3.55849 30.2169 3.82753C30.4861 4.10092 31.5194 7.03005 31.3067 7.16892C31.0896 7.30778 29.5135 7.8155 29.5135 7.8155L28.6885 4.04884Z" fill="#FDFDFF"/>
<path d="M29.5135 8.03701C29.4745 8.03701 29.4397 8.02833 29.405 8.00664C29.3529 7.97626 29.3138 7.92419 29.3008 7.86343L28.4758 4.09678C28.4541 3.99264 28.5105 3.88849 28.6104 3.84943C29.1314 3.64548 30.0519 3.35473 30.3733 3.68019C30.6685 3.97962 31.6107 6.61367 31.5499 7.1344C31.5369 7.26025 31.4718 7.32534 31.424 7.35572C31.1982 7.50326 29.8479 7.9372 29.5787 8.02399C29.557 8.03267 29.5353 8.03267 29.5135 8.03267V8.03701ZM28.9404 4.18791L29.6742 7.53797C30.2821 7.33836 30.903 7.12139 31.1201 7.02592C31.0984 6.50518 30.2734 4.21829 30.0606 3.98396C29.9564 3.91453 29.4484 4.00999 28.9404 4.19225V4.18791Z" fill="#261D2A"/>
<path d="M24.2813 4.20916C24.2813 4.20916 23.8211 1.37549 27.4162 0.511937C29.8651 -0.07823 27.7289 2.00471 28.0936 3.20674C28.454 4.40877 24.2857 4.20916 24.2857 4.20916H24.2813Z" fill="#C45041"/>
<path d="M26.27 10.2676C26.27 10.2676 27.8505 12.663 31.0809 10.8664C33.2823 9.64271 30.2994 9.55592 29.7523 8.42332C29.2052 7.29072 26.27 10.2632 26.27 10.2632V10.2676Z" fill="#C45041"/>
<path d="M28.6369 2.75661C28.6369 2.75661 30.5778 7.7817 30.5431 8.65827C30.5083 9.53484 22.9663 11.4529 21.4509 8.81449C19.3885 5.22576 28.2679 2.36606 28.6369 2.76095V2.75661Z" fill="#FDFDFF"/>
<path d="M25.0111 10.359C23.422 10.359 21.8892 10.0119 21.2597 8.91833C20.4955 7.58611 21.0252 6.18881 22.8011 4.87829C24.4554 3.6589 28.3154 2.09236 28.7973 2.60441C28.8147 2.62611 28.8321 2.64781 28.8408 2.67385C29.0405 3.19458 30.7946 7.76837 30.7599 8.6623C30.7339 9.28284 29.0144 9.76886 28.2763 9.95112C27.3862 10.1681 26.1878 10.359 25.0155 10.359H25.0111ZM28.4587 2.93421C27.7205 2.93421 23.435 4.30982 21.8936 6.33201C21.2727 7.14783 21.1902 7.92459 21.6374 8.70569C22.1845 9.66038 23.791 10.09 26.0489 9.89037C28.3371 9.68641 30.2172 8.9487 30.3257 8.6406C30.3474 8.05478 29.2446 4.94772 28.4717 2.93855C28.4717 2.93855 28.463 2.93855 28.4587 2.93855V2.93421Z" fill="#261D2A"/>
<path d="M24.9499 10.3842C24.9499 10.3842 23.352 4.97722 23.0394 4.7212C22.7268 4.46517 19.822 7.12526 20.4255 8.66577C21.2071 10.6749 24.5851 10.4146 24.9499 10.3799V10.3842Z" fill="#C45041"/>
<path d="M27.1471 8.37842C28.0762 8.01824 28.5365 6.96809 28.1718 6.03945C27.8114 5.1108 26.7606 4.65082 25.8314 5.01533C24.9023 5.37985 24.442 6.42566 24.8067 7.3543C25.1671 8.28295 26.2179 8.74293 27.1471 8.37842Z" fill="#FDFDFF"/>
<path d="M26.4915 8.7219C26.2137 8.7219 25.9401 8.66549 25.6796 8.54832C25.1846 8.33135 24.8025 7.93646 24.6071 7.43308C24.4117 6.9297 24.4204 6.38293 24.6375 5.88823C24.8546 5.39354 25.2497 5.01166 25.7534 4.81639C26.7911 4.41282 27.9678 4.92487 28.3716 5.96634C28.567 6.46972 28.5583 7.02083 28.3412 7.51553C28.1241 8.01023 27.729 8.3921 27.2253 8.58738C26.9865 8.67851 26.739 8.72624 26.4915 8.72624V8.7219ZM26.4915 5.11147C26.3005 5.11147 26.1051 5.14619 25.9141 5.21996C25.5189 5.37618 25.2063 5.67126 25.037 6.06181C24.8676 6.45236 24.859 6.88197 25.0109 7.27686C25.1629 7.67175 25.4625 7.98419 25.8533 8.15343C26.2397 8.32267 26.6739 8.33135 27.069 8.17947C27.4641 8.02759 27.7768 7.72816 27.9461 7.33761C28.1154 6.9514 28.1241 6.51746 27.9722 6.12256C27.729 5.49768 27.1255 5.11147 26.4915 5.11147Z" fill="#261D2A"/>
<path d="M31.628 5.91882C31.628 5.91882 31.7365 7.16858 33.5471 7.10783C35.3534 7.04708 37.4506 3.59287 37.1032 3.24571C36.7515 2.89856 34.3678 0.924101 32.5876 1.88312C30.8073 2.84648 30.8681 3.684 31.6323 5.91448L31.628 5.91882Z" fill="#C45041"/>
<path d="M31.9104 5.33278C31.9104 5.33278 31.9669 5.97502 32.896 5.94464C33.8252 5.91427 34.9064 4.13943 34.724 3.95717C34.5416 3.77925 33.3172 2.76382 32.4011 3.25852C31.4849 3.75322 31.5153 4.18282 31.9104 5.33278Z" fill="#E8C01B"/>
<path d="M25.6016 7.03009C25.6016 7.03009 25.7145 8.00647 26.7044 7.78516L25.6016 7.03009Z" fill="#FDFDFF"/>
<path d="M26.4223 8.03598C26.2009 8.03598 26.0055 7.97957 25.8405 7.85807C25.4497 7.58034 25.3846 7.07696 25.3846 7.05527C25.3716 6.9381 25.4584 6.82961 25.5756 6.8166C25.6929 6.80358 25.8014 6.88603 25.8145 7.00753C25.8145 7.01621 25.8622 7.34601 26.0923 7.51091C26.2313 7.60638 26.418 7.62808 26.6525 7.576C26.7697 7.54996 26.8869 7.62374 26.913 7.7409C26.939 7.85807 26.8652 7.97523 26.748 8.00127C26.6351 8.02731 26.5222 8.04032 26.4223 8.04032V8.03598Z" fill="#261D2A"/>
<path d="M23.1089 9.64209C21.967 9.64209 21.142 8.80024 21.1072 8.76118C21.0247 8.67439 21.0247 8.53987 21.1116 8.45308C21.1984 8.37063 21.333 8.37497 21.4199 8.45742C21.4285 8.4661 22.2665 9.31663 23.326 9.19079C23.4476 9.17777 23.5518 9.26022 23.5648 9.38173C23.5778 9.49889 23.4953 9.60738 23.3738 9.62474C23.2826 9.63342 23.1957 9.64209 23.1045 9.64209H23.1089Z" fill="#261D2A"/>
<path d="M94.7821 60.6534C94.7821 60.6534 94.1569 61.8555 93.7748 61.8251C93.3927 61.7947 90.6833 60.2716 90.7528 60.0242C90.8222 59.7769 91.6776 58.3578 91.6776 58.3578L94.7778 60.6534H94.7821Z" fill="#FDFDFF"/>
<path d="M93.7835 62.0417C93.7835 62.0417 93.7661 62.0417 93.7574 62.0417C93.3406 62.0113 90.896 60.6444 90.5965 60.2148C90.5226 60.1106 90.527 60.0195 90.5444 59.9631C90.6182 59.7027 91.3476 58.4877 91.4909 58.2446C91.5213 58.1926 91.5734 58.1535 91.6342 58.1448C91.695 58.1318 91.7558 58.1448 91.8035 58.1839L94.9037 60.4795C94.9905 60.5446 95.0166 60.6574 94.9688 60.7528C94.7648 61.1434 94.2437 62.0417 93.7791 62.0417H93.7835ZM90.9916 60.0108C91.352 60.3883 93.4795 61.5687 93.7921 61.6077C93.9137 61.5904 94.235 61.1825 94.4999 60.7138L91.7427 58.6743C91.4171 59.2254 91.0914 59.7938 90.9916 60.0108Z" fill="#261D2A"/>
<path d="M97.9954 57.6374C97.9954 57.6374 100.206 59.4686 98.0693 62.4802C96.6104 64.5371 96.8492 61.5646 95.7854 60.892C94.7216 60.2237 97.9954 57.6331 97.9954 57.6331V57.6374Z" fill="#C45041"/>
<path d="M92.5111 54.3829C92.5111 54.3829 89.7409 53.6192 88.4947 57.0951C87.6437 59.4645 89.945 57.5681 91.1043 58.0585C92.2636 58.5488 92.5111 54.3829 92.5111 54.3829Z" fill="#C45041"/>
<path d="M95.6768 61.5946C95.6768 61.5946 90.905 59.0864 90.3579 58.4051C89.8108 57.7238 94.2266 51.3187 97.101 52.3081C101.017 53.6577 96.2152 61.651 95.6768 61.5946Z" fill="#FDFDFF"/>
<path d="M95.6724 61.8116C95.6724 61.8116 95.6593 61.8116 95.6507 61.8116C95.6246 61.8116 95.5942 61.8029 95.5725 61.7899C95.0819 61.5296 90.7442 59.2383 90.1841 58.544C89.7933 58.058 90.7703 56.5609 91.2045 55.9403C92.4419 54.1785 95.0905 51.3926 97.166 52.1086C98.6206 52.6076 99.1373 54.0093 98.6683 56.1616C98.2298 58.1491 96.3845 61.816 95.668 61.816L95.6724 61.8116ZM96.4756 52.421C95.49 52.421 94.2352 53.1587 92.9282 54.5213C91.3434 56.179 90.4142 57.9712 90.5315 58.275C90.9005 58.7306 93.7793 60.3449 95.6811 61.3516C96.2195 60.9047 98.5685 57.0165 98.3991 54.4649C98.3297 53.4451 97.8824 52.8029 97.0314 52.5122C96.8577 52.4514 96.671 52.4254 96.4756 52.4254V52.421Z" fill="#261D2A"/>
<path d="M93.4277 53.4235C93.4277 53.4235 98.1909 56.4438 98.5947 56.4307C98.9985 56.4177 99.4327 52.5079 97.9651 51.7398C96.0546 50.7417 93.6796 53.1588 93.4277 53.4235Z" fill="#C45041"/>
<path d="M93.0932 56.3785C92.6329 57.2638 92.9759 58.353 93.8574 58.813C94.7431 59.2729 95.833 58.9301 96.2932 58.0492C96.7535 57.164 96.4104 56.0748 95.529 55.6148C94.6433 55.1548 93.5534 55.4976 93.0932 56.3785Z" fill="#FDFDFF"/>
<path d="M94.691 59.2343C94.374 59.2343 94.0571 59.1605 93.7575 59.0043C92.7675 58.4879 92.3854 57.2641 92.8978 56.2747C93.1496 55.7974 93.5708 55.4416 94.0831 55.281C94.5998 55.1161 95.1469 55.1682 95.6245 55.4155C96.1021 55.6672 96.4582 56.0881 96.6188 56.6002C96.7795 57.1166 96.7317 57.6634 96.4842 58.1407C96.1239 58.8307 95.4161 59.2256 94.6867 59.2256L94.691 59.2343ZM93.2842 56.4787C92.8804 57.2555 93.18 58.2145 93.9572 58.6224C94.7344 59.026 95.694 58.7265 96.1022 57.9498C96.2975 57.5722 96.3366 57.1426 96.2107 56.7391C96.0848 56.3355 95.8069 56.0057 95.4291 55.8061C95.0514 55.6108 94.6215 55.5718 94.2177 55.6976C93.8139 55.8234 93.4839 56.1012 93.2842 56.4787Z" fill="#261D2A"/>
<path d="M91.3389 61.1789C91.3389 61.1789 90.4358 60.311 89.1115 61.5434C87.7872 62.7758 88.4819 66.7551 88.9769 66.7898C89.4719 66.8202 92.5677 66.7377 93.2711 64.8457C93.9745 62.9537 93.3797 62.3592 91.3389 61.1789Z" fill="#C45041"/>
<path d="M91.5079 61.8037C91.5079 61.8037 91.0433 61.3568 90.3616 61.9903C89.6799 62.6239 90.0403 64.6721 90.2921 64.6895C90.5439 64.7068 92.1374 64.6634 92.5022 63.687C92.8669 62.715 92.5586 62.4069 91.5079 61.8037Z" fill="#E8C01B"/>
<path d="M95.1466 56.3741C95.1466 56.3741 94.4171 55.7101 93.8223 56.5303L95.1466 56.3741Z" fill="#FDFDFF"/>
<path d="M93.8179 56.7518C93.7745 56.7518 93.7311 56.7388 93.692 56.7084C93.5965 56.6389 93.5748 56.5001 93.6442 56.4046C93.8613 56.1052 94.1218 55.9403 94.4171 55.9099C94.8947 55.8578 95.2768 56.2007 95.2898 56.2137C95.3767 56.2961 95.3854 56.4307 95.3029 56.5218C95.2204 56.6086 95.0858 56.6173 94.9989 56.5348C94.9989 56.5348 94.7427 56.3048 94.4562 56.3395C94.2868 56.3569 94.1305 56.4654 93.9916 56.6563C93.9482 56.7127 93.883 56.7474 93.8179 56.7474V56.7518Z" fill="#261D2A"/>
<path d="M95.2684 53.3243C95.2163 53.3243 95.1642 53.3069 95.1207 53.2679C95.0339 53.1898 95.0252 53.0509 95.1034 52.9598C95.9674 52.0094 97.3265 52.1136 97.3829 52.1179C97.5001 52.1266 97.5913 52.2351 97.5783 52.3522C97.5696 52.4694 97.4698 52.5605 97.3438 52.5519C97.3308 52.5519 96.1411 52.4607 95.4247 53.2549C95.3813 53.3026 95.3248 53.3243 95.264 53.3243H95.2684Z" fill="#261D2A"/>
<path d="M17.465 90.1995C17.465 90.1995 16.2058 86.8321 16.8354 87.1011C17.465 87.3702 19.4971 88.3986 19.4971 88.3986C19.4971 88.3986 21.6854 86.8842 21.82 87.0881C21.9546 87.2921 21.642 90.065 21.642 90.065C21.642 90.065 24.3384 91.5013 23.8434 91.8138C23.3484 92.1262 20.8778 92.3953 20.8778 92.3953C20.8778 92.3953 19.9399 95.8538 19.4971 95.5023C18.8197 94.9729 18.2292 92.8422 18.2292 92.8422C18.2292 92.8422 15.3939 92.7988 15.4851 92.3475C15.5762 91.9006 17.465 90.1908 17.465 90.1908V90.1995Z" fill="#E8C01B"/>
<path d="M96.5408 88.1606H95.6984L96.5886 87.5531C96.6884 87.4836 96.7145 87.3491 96.645 87.2536C96.5755 87.1538 96.4409 87.1278 96.3454 87.1972L95.147 88.0087L95.1731 86.6071C95.1731 86.4855 95.0819 86.3901 94.9603 86.3857C94.8431 86.3857 94.7432 86.4812 94.7389 86.5984L94.7172 87.8351L93.9834 87.041C93.9009 86.9542 93.7663 86.9455 93.6751 87.028C93.5883 87.1104 93.5796 87.2449 93.6621 87.3361L94.4176 88.1562H93.0281C92.9066 88.1519 92.811 88.2474 92.811 88.3689C92.811 88.486 92.9066 88.5858 93.0238 88.5858L94.2917 88.5902L93.3017 89.2628C93.2018 89.3322 93.1758 89.4668 93.2452 89.5622C93.2887 89.623 93.3538 89.6577 93.4233 89.6577C93.4667 89.6577 93.5101 89.6447 93.5492 89.6186L94.6998 88.8375L94.6737 90.2479C94.6737 90.3694 94.7649 90.4648 94.8865 90.4692C95.0037 90.4692 95.1036 90.3737 95.1079 90.2565L95.134 88.9243L95.9155 89.7705C95.959 89.8139 96.0154 89.8399 96.0719 89.8399C96.124 89.8399 96.1804 89.8226 96.2238 89.7835C96.3107 89.7011 96.3194 89.5666 96.2369 89.4754L95.4162 88.5858H96.5451C96.6667 88.5858 96.7622 88.4947 96.7622 88.3732C96.7622 88.256 96.6667 88.1562 96.5451 88.1562L96.5408 88.1606Z" fill="#261D2A"/>
<path d="M6.65261 25.2036H5.81027L6.70037 24.596C6.80024 24.5266 6.82629 24.3921 6.75682 24.2966C6.68735 24.1968 6.55275 24.1708 6.45722 24.2402L5.25884 25.0517L5.28489 23.65C5.28489 23.5285 5.19371 23.4331 5.07213 23.4287C4.9549 23.4287 4.85503 23.5242 4.85069 23.6413L4.82898 24.8781L4.09519 24.084C4.01269 23.9972 3.87809 23.9885 3.78691 24.071C3.70007 24.1534 3.69138 24.2879 3.77388 24.3791L4.52938 25.1992H3.13995C3.01838 25.1949 2.92285 25.2903 2.92285 25.4118C2.92285 25.529 3.01838 25.6288 3.13561 25.6288L4.40347 25.6332L3.4135 26.3058C3.31363 26.3752 3.28758 26.5097 3.35705 26.6052C3.40047 26.6659 3.4656 26.7007 3.53507 26.7007C3.57849 26.7007 3.62191 26.6876 3.66099 26.6616L4.81161 25.8805L4.78556 27.2908C4.78556 27.4123 4.87674 27.5078 4.99832 27.5121C5.11555 27.5121 5.21542 27.4167 5.21976 27.2995L5.24581 25.9673L6.02737 26.8135C6.07079 26.8569 6.12723 26.8829 6.18368 26.8829C6.23578 26.8829 6.29223 26.8656 6.33565 26.8265C6.42249 26.7441 6.43117 26.6095 6.34867 26.5184L5.52804 25.6288H6.65695C6.77853 25.6288 6.87405 25.5377 6.87405 25.4162C6.87405 25.299 6.77853 25.1992 6.65695 25.1992L6.65261 25.2036Z" fill="#261D2A"/>
<path d="M15.4366 20.8345C15.2759 20.8345 15.124 20.8345 14.7028 19.1508C13.2743 18.8774 13.1484 18.7081 13.1093 18.6517C13.0702 18.5997 13.0528 18.4998 13.0702 18.4348C13.0963 18.3436 13.157 18.131 14.7853 17.4757C15.3715 15.9482 15.5712 15.9482 15.7014 15.9482C15.7709 15.9482 15.8664 15.996 15.9055 16.0524C16.0097 16.1913 16.1053 16.5601 16.2485 17.1416C16.292 17.3239 16.3484 17.5452 16.3788 17.645C16.4656 17.684 16.6523 17.7491 16.8087 17.8055C17.6467 18.105 17.8638 18.2091 17.9028 18.4087C17.9159 18.4825 17.8811 18.591 17.8247 18.643C17.6553 18.7949 16.8434 19.0987 16.4179 19.2462C15.7275 20.8171 15.5799 20.8258 15.4496 20.8301C15.4496 20.8301 15.4409 20.8301 15.4366 20.8301V20.8345ZM13.6564 18.4651C13.9429 18.5476 14.464 18.6647 14.9155 18.7515C14.998 18.7689 15.0675 18.8296 15.0849 18.9121C15.2021 19.3808 15.3541 19.9188 15.4626 20.2226C15.619 19.9362 15.8621 19.4328 16.0531 18.9902C16.0792 18.9338 16.1226 18.8904 16.1791 18.873C16.5655 18.7385 17.004 18.5693 17.2776 18.4478C17.0865 18.3653 16.826 18.2742 16.6567 18.2134C16.1791 18.0399 16.0879 18.0051 16.0271 17.9227C15.975 17.8489 15.9403 17.7318 15.8187 17.2457C15.7753 17.0635 15.7058 16.7858 15.645 16.5775C15.5017 16.8465 15.302 17.3108 15.15 17.7187C15.1283 17.7752 15.0849 17.8229 15.0284 17.8446C14.5248 18.0442 13.9516 18.3002 13.652 18.4695L13.6564 18.4651Z" fill="#261D2A"/>
<path d="M5.11618 6.36608C5.11618 6.36608 4.74712 3.11148 7.74742 4.20069C10.7477 5.28989 9.72737 8.25374 8.58977 7.22095C7.45217 6.18816 9.65789 2.75999 11.9461 4.32653C14.2343 5.89308 13.6742 8.86995 12.0373 9.06956C10.4004 9.26918 13.075 5.60667 15.1071 7.91527C17.1391 10.2239 12.58 14.3246 10.7564 12.7755C8.93713 11.2219 10.4091 8.77448 10.8302 10.2803C11.2514 11.7904 10.04 13.2528 6.77482 13.153C3.50965 13.0532 5.06842 7.85885 6.18865 9.39068C7.30888 10.9225 5.38973 12.6106 3.11019 10.7967C0.830649 8.98277 3.50965 5.32027 5.11184 6.36608H5.11618Z" fill="#FDFDFF"/>
<path d="M7.0785 13.3739C6.97864 13.3739 6.87443 13.3739 6.77022 13.3696C5.69775 13.3349 4.94659 12.7577 4.69476 11.777C4.17372 11.7032 3.58755 11.4516 2.97967 10.9655C1.62498 9.885 1.86813 8.19695 2.67139 7.09039C3.30967 6.20948 4.16938 5.80591 4.88146 6.02288C4.88146 5.51083 4.98567 4.59086 5.61526 4.09183C6.13195 3.68392 6.87443 3.65354 7.82098 3.99636C8.26821 4.15692 8.62425 4.35653 8.90213 4.56917C9.62724 3.80542 10.8213 3.29336 12.0674 4.14824C13.2267 4.94236 13.6523 6.02288 13.6827 6.93417C14.169 6.95587 14.7291 7.15982 15.2675 7.77169C16.4442 9.10824 15.6148 10.844 14.5467 11.9289C13.3874 13.1049 11.6636 13.8339 10.6172 12.94C10.4739 12.8185 10.348 12.6883 10.2395 12.5581C9.53172 13.0919 8.44188 13.3783 7.0785 13.3783V13.3739ZM5.15501 11.803C5.33303 12.3542 5.76723 12.9096 6.78325 12.94C8.19873 12.9834 9.31462 12.723 9.99197 12.2023C9.58383 11.5036 9.5708 10.7442 9.79224 10.1888C9.94855 9.80255 10.2004 9.58558 10.4696 9.59426C10.652 9.60294 10.8994 9.72011 11.0384 10.2278C11.2294 10.9135 11.1079 11.5861 10.6867 12.1198C10.6476 12.1719 10.6042 12.224 10.5564 12.2717C10.652 12.3889 10.7605 12.5017 10.8908 12.6145C11.7244 13.3262 13.2354 12.6362 14.2297 11.6295C15.1676 10.6791 15.9144 9.17333 14.9331 8.06677C14.4989 7.57207 14.0517 7.39415 13.6566 7.3768C13.6436 7.50698 13.6219 7.62849 13.5915 7.74131C13.3787 8.6092 12.7882 9.20371 12.0501 9.2905C11.5203 9.35559 11.3684 9.07353 11.3293 8.94768C11.173 8.47902 11.6984 7.68924 12.4495 7.25529C12.6232 7.15548 12.9011 7.0253 13.2398 6.96455C13.2181 6.16609 12.8447 5.21141 11.8113 4.50841C10.7952 3.8141 9.84 4.20465 9.2191 4.85557C9.82263 5.46743 9.91382 6.12269 9.92684 6.37438C9.95289 6.93851 9.72711 7.41151 9.3537 7.58943C9.06279 7.72829 8.72411 7.65452 8.4332 7.38548C7.79059 6.79965 8.04242 5.70177 8.61556 4.90764C8.37241 4.72539 8.05979 4.55181 7.66467 4.40861C6.87009 4.11786 6.26655 4.13088 5.87577 4.43464C5.17672 4.98575 5.31566 6.33099 5.32 6.344C5.32869 6.42645 5.28961 6.5089 5.21579 6.5523C5.14632 6.59569 5.05514 6.59569 4.98133 6.5523C4.33003 6.12703 3.50071 6.66513 3.01007 7.35076C2.32404 8.3011 2.10259 9.73312 3.23585 10.6357C3.72649 11.0263 4.19109 11.2433 4.60357 11.3344C4.50805 10.3146 4.89883 9.21239 5.48065 8.95636C5.62394 8.89127 6.00169 8.7958 6.34905 9.27314C6.86575 9.97613 6.83969 10.8093 6.27958 11.3431C6.00169 11.6078 5.60657 11.7857 5.1333 11.8074L5.15501 11.803ZM10.4479 10.0239C10.4045 10.0239 10.2872 10.1193 10.196 10.345C10.0658 10.6748 9.99631 11.278 10.3133 11.8898C10.3263 11.8768 10.335 11.8595 10.348 11.8464C10.6823 11.4168 10.7779 10.8961 10.6216 10.3363C10.5521 10.0803 10.4652 10.0239 10.4479 10.0195V10.0239ZM5.74986 9.32955C5.71512 9.32955 5.68907 9.34257 5.6717 9.34691C5.32434 9.49879 4.94225 10.4405 5.06382 11.3734C5.45894 11.3734 5.78025 11.2389 6.00169 11.0263C6.40115 10.6444 6.4055 10.0542 6.01906 9.52483C5.90183 9.36861 5.81065 9.32955 5.74986 9.32955ZM13.2267 7.41151C13.0096 7.46359 12.8229 7.54604 12.6797 7.62849C12.0284 8.00168 11.6897 8.61354 11.7548 8.80448C11.7809 8.87825 11.9763 8.85655 12.011 8.85221C12.5668 8.78278 13.014 8.31412 13.1833 7.62849C13.2007 7.55905 13.2137 7.48528 13.2267 7.40717V7.41151ZM8.95424 5.18971C8.45057 5.90572 8.3507 6.70418 8.74148 7.05568C8.85437 7.15982 9.02371 7.26397 9.18436 7.18586C9.3537 7.10775 9.52738 6.82135 9.50567 6.38306C9.49698 6.18344 9.42317 5.68007 8.95424 5.18537V5.18971Z" fill="#261D2A"/>
<path d="M66.3686 70.7809C66.3686 70.7809 65.9996 67.5263 68.9999 68.6155C72.0002 69.7047 70.9798 72.6686 69.8422 71.6358C68.7046 70.603 70.9103 67.1748 73.1986 68.7414C75.4868 70.3079 74.9267 73.2848 73.2897 73.4844C71.6528 73.684 74.3275 70.0215 76.3595 72.3301C78.3916 74.6387 73.8325 78.7395 72.0089 77.1903C70.1896 75.6368 71.6615 73.1893 72.0827 74.6951C72.5038 76.2053 71.2924 77.6677 68.0273 77.5679C64.7621 77.468 66.3209 72.278 67.4411 73.8055C68.5613 75.3374 66.6422 77.0254 64.3626 75.2115C62.0831 73.3976 64.7621 69.7351 66.3643 70.7809H66.3686Z" fill="#FDFDFF"/>
<path d="M68.3309 77.7888C68.2311 77.7888 68.1269 77.7888 68.0227 77.7845C66.9502 77.7498 66.199 77.1726 65.9472 76.1919C65.4262 76.1182 64.84 75.8665 64.2321 75.3804C62.8774 74.2999 63.1206 72.6119 63.9238 71.5053C64.5621 70.6244 65.4218 70.2208 66.1339 70.4378C66.1339 69.9257 66.2381 69.0058 66.8677 68.5067C67.3844 68.0988 68.1269 68.0685 69.0734 68.4113C69.5206 68.5718 69.8767 68.7714 70.1546 68.9841C70.8797 68.2203 72.0737 67.7083 73.3199 68.5632C74.4792 69.3573 74.9047 70.4378 74.9351 71.3491C75.4214 71.3708 75.9815 71.5747 76.5199 72.1866C77.6966 73.5232 76.8629 75.2589 75.7992 76.3438C74.6398 77.5198 72.9161 78.2488 71.8697 77.3549C71.7264 77.2334 71.6005 77.1032 71.4919 76.973C70.7842 77.5068 69.6943 77.7932 68.3309 77.7932V77.7888ZM66.4074 76.2136C66.5855 76.7647 67.0197 77.3202 68.0357 77.3506C69.4512 77.394 70.5671 77.1336 71.2444 76.6129C70.8363 75.9142 70.8232 75.1548 71.0447 74.5993C71.201 74.2131 71.4528 73.9918 71.722 74.0048C71.9044 74.0135 72.1519 74.1307 72.2908 74.6384C72.4819 75.324 72.3603 75.9967 71.9391 76.5304C71.9 76.5825 71.8566 76.6346 71.8089 76.6823C71.9044 76.7995 72.0129 76.9123 72.1475 77.0251C72.9812 77.7368 74.4922 77.0468 75.4865 76.04C76.4244 75.0897 77.1712 73.5839 76.1899 72.4774C75.7557 71.9827 75.3085 71.8047 74.9134 71.7874C74.9004 71.9132 74.8787 72.0391 74.8483 72.1519C74.6355 73.0198 74.045 73.6143 73.3069 73.7011C72.7771 73.7618 72.6252 73.4841 72.5861 73.3583C72.4298 72.8896 72.9552 72.0998 73.7063 71.6659C73.88 71.5661 74.1579 71.4359 74.4966 71.3751C74.4748 70.5767 74.1014 69.622 73.068 68.919C72.0564 68.2247 71.0968 68.6152 70.4759 69.2661C71.0794 69.878 71.1706 70.5333 71.1836 70.785C71.2097 71.3491 70.9839 71.8221 70.6105 72C70.3196 72.1345 69.9809 72.0608 69.69 71.7961C69.0474 71.2102 69.2992 70.1123 69.8723 69.3182C69.6292 69.136 69.3166 68.9624 68.9215 68.8192C68.1269 68.5284 67.5233 68.5415 67.1326 68.8452C66.4335 69.3963 66.5724 70.7416 66.5768 70.7546C66.5855 70.837 66.5464 70.9195 66.4726 70.9629C66.4031 71.0063 66.3119 71.0063 66.2381 70.9629C65.5868 70.5376 64.7575 71.0757 64.2669 71.7613C63.5808 72.7117 63.3594 74.1437 64.4926 75.0463C64.9833 75.4369 65.4479 75.6538 65.8604 75.745C65.7648 74.7252 66.1556 73.623 66.7374 73.3669C66.8851 73.3018 67.2585 73.2064 67.6058 73.6837C68.1225 74.3867 68.0965 75.2199 67.5364 75.7536C67.2585 76.0184 66.8634 76.1963 66.3901 76.218L66.4074 76.2136ZM71.7003 74.4388C71.6569 74.4388 71.5397 74.5343 71.4485 74.7599C71.3182 75.0897 71.2488 75.6929 71.5657 76.3048C71.5787 76.2917 71.5874 76.2744 71.6005 76.2614C71.9348 75.8318 72.0303 75.311 71.874 74.7512C71.8045 74.4952 71.7177 74.4388 71.7003 74.4344V74.4388ZM66.998 73.7401C66.9632 73.7401 66.9372 73.7532 66.9198 73.7575C66.5724 73.9094 66.1904 74.851 66.3119 75.784C66.707 75.784 67.0284 75.6495 67.2498 75.4369C67.6493 75.055 67.6536 74.4648 67.2672 73.9354C67.1499 73.7792 67.0587 73.7401 66.998 73.7401ZM74.4792 71.8221C74.2621 71.8742 74.0754 71.9566 73.9321 72.0391C73.2808 72.4123 72.9421 73.0241 73.0073 73.2151C73.0333 73.2888 73.2287 73.2671 73.2634 73.2628C73.8192 73.1934 74.2664 72.7247 74.4358 72.0391C74.4531 71.9696 74.4662 71.8959 74.4792 71.8178V71.8221ZM70.2023 69.6046C69.6987 70.3206 69.5988 71.1191 69.9896 71.4706C70.1025 71.5747 70.2718 71.6789 70.4325 71.6008C70.6018 71.5227 70.7755 71.2363 70.7538 70.798C70.7451 70.5984 70.6713 70.095 70.2023 69.6003V69.6046Z" fill="#261D2A"/>
<path d="M2.93206 53.2188C2.93206 53.2188 4.25637 48.9922 4.62109 49.5086C4.98148 50.025 6.06697 52.8586 6.06697 52.8586C6.06697 52.8586 9.88357 54.065 9.78371 54.3037C9.68384 54.5424 6.35789 55.8095 6.35789 55.8095C6.35789 55.8095 5.28107 59.485 4.67754 59.1248C4.074 58.7647 3.03193 55.8312 3.03193 55.8312C3.03193 55.8312 -0.385209 55.5231 0.0359634 54.794C0.457135 54.065 2.92772 53.2232 2.92772 53.2232L2.93206 53.2188Z" fill="#E8C01B"/>
<path d="M92.1076 18.1995C92.1076 18.1995 92.8849 15.726 93.0976 16.0298C93.3104 16.3335 93.9443 17.9912 93.9443 17.9912C93.9443 17.9912 96.1761 18.6985 96.1196 18.8374C96.0632 18.9763 94.1136 19.7183 94.1136 19.7183C94.1136 19.7183 93.484 21.8707 93.1323 21.658C92.7806 21.4454 92.1684 19.7313 92.1684 19.7313C92.1684 19.7313 90.1668 19.5491 90.4143 19.1238C90.6618 18.6985 92.1076 18.2038 92.1076 18.2038V18.1995Z" fill="#E8C01B"/>
<path d="M87.0842 5.65387C85.7859 4.61674 77.5796 7.26381 73.8672 14.029C73.8672 14.029 74.5836 14.463 75.6214 15.0835C77.0889 13.2089 81.4179 8.15774 87.171 5.7233C87.145 5.70161 87.1146 5.67123 87.0885 5.64953L87.0842 5.65387Z" fill="#BE607A"/>
<path d="M87.1669 5.72339C81.4137 8.15783 77.0848 13.209 75.6172 15.0836C76.3944 15.5479 77.3496 16.1164 78.3266 16.6892C79.894 14.3329 84.0189 8.64385 88.261 6.92108C87.9093 6.46544 87.5316 6.04017 87.1625 5.72339H87.1669Z" fill="#A17296"/>
<path d="M89.103 8.10967C88.8642 7.74081 88.5776 7.31988 88.265 6.92065C84.0229 8.64342 79.898 14.3368 78.3306 16.6888C79.3683 17.3006 80.4277 17.9125 81.3179 18.4072C82.1298 16.4501 84.5917 11.2948 89.103 8.10967Z" fill="#76ADA2"/>
<path d="M89.1035 8.10999C84.5922 11.2908 82.1303 16.4504 81.3184 18.4075C82.4082 19.015 83.2375 19.4447 83.4459 19.475C84.2014 19.5748 85.326 13.5994 89.8026 9.26428C89.8026 9.26428 89.5247 8.7609 89.1035 8.10999Z" fill="#D37E3A"/>
<path d="M75.6174 15.3006C75.574 15.3006 75.5306 15.2875 75.4958 15.2615C75.396 15.1921 75.3699 15.0576 75.4394 14.9578C75.4828 14.897 79.7076 8.84345 87.0759 5.52376C87.1845 5.47169 87.3147 5.52376 87.3625 5.63225C87.4102 5.74074 87.3625 5.87092 87.2539 5.91866C79.9985 9.18627 75.8389 15.1443 75.7954 15.2008C75.752 15.2615 75.6869 15.2962 75.6174 15.2962V15.3006Z" fill="#261D2A"/>
<path d="M78.3309 16.9054C78.2919 16.9054 78.2484 16.8924 78.2137 16.8707C78.1138 16.8056 78.0878 16.6711 78.1529 16.5713C78.3961 16.2024 84.1318 7.56691 88.5737 6.72506C88.6952 6.70336 88.8038 6.78147 88.8255 6.89863C88.8472 7.0158 88.769 7.12863 88.6518 7.15466C84.3923 7.96614 78.5741 16.7275 78.5133 16.8143C78.4699 16.8794 78.4004 16.9098 78.3309 16.9098V16.9054Z" fill="#261D2A"/>
<path d="M81.318 18.6242C81.2919 18.6242 81.2659 18.6199 81.2398 18.6112C81.1269 18.5678 81.0748 18.442 81.1183 18.3291C81.1443 18.264 83.7886 11.6073 88.9816 7.93178C89.0814 7.86235 89.2161 7.88405 89.2855 7.98386C89.355 8.08366 89.3333 8.21819 89.2334 8.28762C84.149 11.885 81.5481 18.4203 81.5264 18.4853C81.4917 18.5721 81.4092 18.6242 81.3223 18.6242H81.318Z" fill="#261D2A"/>
<path d="M85.2431 4.6467C85.2431 4.6467 86.0551 0.059892 87.3794 0.840995C88.6429 1.58304 89.7371 4.16068 89.7371 4.16068C89.7371 4.16068 93.3062 3.7007 93.2497 4.44709C93.1976 5.19347 91.4565 7.08982 91.4565 7.08982C91.4565 7.08982 92.9935 11.1819 92.6636 11.9283C92.3336 12.679 88.1132 9.91915 88.1132 9.91915C88.1132 9.91915 85.1563 12.666 84.6656 12.4621C84.175 12.2581 84.9565 8.08789 84.9565 8.08789C84.9565 8.08789 81.3483 6.34777 81.9606 5.64478C82.5728 4.94178 85.2344 4.6467 85.2344 4.6467H85.2431Z" fill="#E8C01B"/>
<path d="M86.0032 5.02868C86.0032 5.02868 85.9728 5.02868 85.9597 5.02434C85.8425 4.9983 85.7687 4.88548 85.7904 4.76831C85.8468 4.49493 86.3635 2.07351 86.8108 1.56579C86.8889 1.47466 87.0279 1.46598 87.119 1.54409C87.2102 1.6222 87.2189 1.76107 87.1364 1.8522C86.8542 2.16898 86.42 3.8657 86.2116 4.85944C86.1899 4.96359 86.0987 5.03302 85.9988 5.03302L86.0032 5.02868Z" fill="#FDFDFF"/>
<path d="M75.9079 2.85518H75.9035C75.274 2.36048 75.1567 1.44919 75.6474 0.81997C76.1337 0.190748 77.0455 0.0735825 77.6751 0.559602C77.9877 0.802612 78.1831 1.14109 78.2308 1.5273C78.2786 1.90917 78.1744 2.29105 77.9399 2.59481C77.4536 3.22403 76.5418 3.3412 75.9122 2.85518H75.9079ZM77.4232 0.893741C76.9717 0.546584 76.3247 0.629034 75.9774 1.076C75.63 1.52296 75.7125 2.17388 76.1597 2.52104C76.6069 2.8682 77.2539 2.78575 77.6013 2.33878C77.7706 2.12181 77.8444 1.85276 77.8097 1.57938C77.7749 1.30599 77.636 1.06298 77.4189 0.893741H77.4232Z" fill="#261D2A"/>
<path d="M6.36198 89.58H6.35764C5.72805 89.0853 5.61082 88.174 6.10146 87.5448C6.58777 86.9156 7.49958 86.7984 8.12917 87.2845C8.44179 87.5275 8.63718 87.8659 8.68494 88.2522C8.7327 88.634 8.6285 89.0159 8.39403 89.3197C7.90773 89.9489 6.99591 90.066 6.36632 89.58H6.36198ZM7.87299 87.6143C7.42143 87.2671 6.77447 87.3496 6.42711 87.7965C6.07975 88.2435 6.16225 88.8944 6.60948 89.2415C7.0567 89.5887 7.70365 89.5063 8.05101 89.0593C8.22035 88.8423 8.29416 88.5733 8.25943 88.2999C8.22469 88.0265 8.08575 87.7835 7.86865 87.6143H7.87299Z" fill="#261D2A"/>
<path d="M86.0547 67.6348C85.5511 67.3788 84.5394 68.1469 83.4365 67.2486C83.3149 65.4781 82.2989 62.4405 78.7949 62.8918C78.7949 62.8918 76.9626 66.3113 77.7833 66.4111C78.2565 66.4675 79.7068 66.0162 80.979 66.1768C80.4666 67.9473 80.9095 71.1932 85.2211 70.6421C85.2211 70.6421 86.7451 67.9863 86.0591 67.6348H86.0547Z" fill="#76ADA2"/>
<path d="M83.6233 67.7258C83.5408 67.7258 83.4626 67.6781 83.4236 67.6C82.7071 66.0291 79.3855 66.2721 79.3508 66.2721C79.2336 66.2764 79.125 66.194 79.1163 66.0725C79.1076 65.951 79.1945 65.8468 79.316 65.8381C79.4637 65.8251 82.9763 65.5691 83.8187 67.4177C83.8664 67.5262 83.8187 67.6564 83.7101 67.7041C83.6797 67.7171 83.6493 67.7215 83.619 67.7215L83.6233 67.7258Z" fill="#261D2A"/>
<path d="M15.6495 57.2339C15.1936 57.568 15.4281 58.8178 14.1298 59.4036C12.4886 58.7223 9.31892 58.271 8.15527 61.5994C8.15527 61.5994 10.3957 64.7672 10.8516 64.0815C11.1122 63.6823 11.3597 62.1852 12.0717 61.122C13.4264 62.3718 16.531 63.4306 17.9681 59.3298C17.9681 59.3298 16.2704 56.7782 15.6539 57.2382L15.6495 57.2339Z" fill="#A17296"/>
<path d="M11.2335 62.7444C11.2074 62.7444 11.177 62.74 11.151 62.727C11.0381 62.6836 10.986 62.5578 11.0294 62.4449C11.0858 62.3061 12.4449 59.0471 14.4596 59.1296C14.5811 59.1339 14.6723 59.2337 14.668 59.3552C14.668 59.4767 14.5594 59.5722 14.4422 59.5635C12.7054 59.4984 11.4419 62.5795 11.4332 62.6098C11.3985 62.6923 11.316 62.7444 11.2335 62.7444Z" fill="#261D2A"/>
<path d="M10.5346 70.6722C10.5346 70.6722 10.9037 67.8298 11.1686 67.908C11.4291 67.9861 13.9518 69.2488 13.9518 69.2488C13.9518 69.2488 14.5901 66.7146 14.8376 66.797C15.085 66.8795 16.9608 68.5806 16.9608 68.5806C16.9608 68.5806 17.8161 66.4239 18.0723 66.6235C18.3285 66.8231 19.3576 67.8602 19.3576 67.8602C19.3576 67.8602 20.5429 65.0873 20.9293 65.326C21.3201 65.5646 22.2884 67.4133 22.2884 67.4133C22.2884 67.4133 23.921 65.2609 24.1294 65.5516C24.3378 65.8424 24.9587 67.0835 24.9587 67.0835C24.9587 67.0835 27.095 65.608 27.095 65.9639C27.095 66.3197 27.2252 68.0685 27.2252 68.0685C27.2252 68.0685 29.3311 67.4263 29.5134 67.7691C29.6958 68.1119 28.7753 70.3163 28.7753 70.3163C28.7753 70.3163 31.5108 70.4552 31.5108 70.8501C31.5108 71.245 29.978 72.6597 29.978 72.6597C29.978 72.6597 31.5933 73.7575 31.5411 74.3651C31.489 74.9769 29.0185 76.1139 29.0185 76.1139C29.0185 76.1139 29.5265 78.0579 28.9577 78.2706C28.3889 78.4832 26.0659 77.7542 26.0659 77.7542C26.0659 77.7542 25.0065 80.8048 24.442 80.7788C23.8776 80.7528 21.5633 79.1124 21.5633 79.1124C21.5633 79.1124 20.6428 82.124 20.0523 82.2585C19.4618 82.3974 16.3225 81.165 16.3225 81.165C16.3225 81.165 15.0937 83.6732 14.7507 83.8555C14.4077 84.0377 12.2975 82.6014 12.2975 82.6014C12.2975 82.6014 10.6736 84.5281 10.3479 84.6279C10.0223 84.7277 8.81957 82.315 8.81957 82.315C8.81957 82.315 5.52835 84.5368 5.49361 83.6342C5.45888 82.7315 6.23175 80.9567 6.23175 80.9567C6.23175 80.9567 2.85803 80.9394 3.15763 80.4924C3.45722 80.0454 4.34733 78.123 4.34733 78.123C4.34733 78.123 1.50767 75.8101 2.35002 75.5194C3.19236 75.2286 4.89008 74.7947 4.89008 74.7947C4.89008 74.7947 3.9305 72.2648 4.31259 72.2301C4.69903 72.191 7.01765 72.4123 7.01765 72.4123C7.01765 72.4123 6.81792 69.7696 7.59513 69.852C8.37234 69.9345 10.5346 70.6679 10.5346 70.6679V70.6722Z" fill="#BE607A"/>
<path d="M19.114 73.6662C17.6421 71.4617 15.9183 72.2255 15.9183 72.2255C13.1872 72.9328 13.9384 77.8755 16.5826 77.9579C19.2269 78.0447 20.1734 75.2544 19.114 73.6662ZM16.6738 76.0355C15.775 76.0052 15.5188 74.3258 16.448 74.0828C16.448 74.0828 17.0342 73.8224 17.5379 74.5731C17.8982 75.1156 17.5769 76.0616 16.6781 76.0355H16.6738Z" fill="#FDFDFF"/>
<path d="M5.76259 77.1286C5.76259 77.1286 7.1911 75.5621 7.59491 75.5491C8.00305 75.536 9.67037 78.4869 9.67037 78.4869C9.67037 78.4869 9.41419 76.1956 9.84839 76.1479C10.2913 76.1002 11.5244 77.1416 11.6981 77.0809C11.8718 77.0201 10.8818 73.8176 10.8818 73.8176C11.316 73.618 13.0832 73.3837 13.0832 73.3837C13.0832 73.3837 14.6767 78.374 13.8083 79.6368C13.6346 79.8885 11.4072 78.8427 11.4072 78.8427C11.4072 78.8427 11.2639 81.4681 10.2956 81.416C9.32735 81.3639 5.75391 77.1243 5.75391 77.1243L5.76259 77.1286Z" fill="#FDFDFF"/>
<path d="M18.3241 71.6316C18.3241 71.6316 19.7526 70.065 20.1564 70.052C20.5646 70.039 22.2319 72.9898 22.2319 72.9898C22.2319 72.9898 21.9757 70.6986 22.4099 70.6508C22.8528 70.6031 24.0859 71.6446 24.2596 71.5838C24.4333 71.5231 23.4433 68.3205 23.4433 68.3205C23.8775 68.1209 25.6447 67.8866 25.6447 67.8866C25.6447 67.8866 27.2382 72.877 26.3698 74.1398C26.1961 74.3914 23.9687 73.3456 23.9687 73.3456C23.9687 73.3456 23.8254 75.971 22.8571 75.9189C21.8889 75.8669 18.3154 71.6272 18.3154 71.6272L18.3241 71.6316Z" fill="#FDFDFF"/>
<path d="M48.7443 8.65722C48.6791 8.65722 48.6097 8.64854 48.5402 8.62685C48.423 8.59213 48.3578 8.47497 48.3926 8.3578C48.4273 8.24498 48.5445 8.17554 48.6618 8.21026C48.6922 8.21894 48.7182 8.23196 48.7443 8.22328C48.8919 8.22328 48.9874 8.05404 49.0439 7.91084C49.0873 7.79801 49.2132 7.74594 49.3261 7.78499C49.439 7.82839 49.4954 7.95423 49.452 8.06272C49.2566 8.57911 48.9266 8.65722 48.7486 8.65722H48.7443ZM69.3773 8.26233C69.2992 8.26233 69.2254 8.22328 69.1863 8.14951C69.1299 8.04536 69.1689 7.91084 69.2731 7.85442C69.4425 7.76329 69.6335 7.57236 69.8029 7.31633C69.868 7.21652 70.0026 7.19049 70.1025 7.25558C70.2023 7.32067 70.2284 7.45519 70.1632 7.555C69.9505 7.87178 69.716 8.10611 69.4772 8.2363C69.4425 8.25365 69.4077 8.26233 69.373 8.26233H69.3773ZM60.6109 8.2363C60.3981 8.2363 60.1854 8.13649 59.9813 7.94121C59.9162 7.87612 59.851 7.80669 59.7903 7.73292C59.7164 7.63745 59.7338 7.50293 59.8293 7.42916C59.9249 7.35539 60.0595 7.37274 60.1333 7.46821C60.181 7.52896 60.2288 7.58104 60.2809 7.63311C60.4025 7.75028 60.5154 7.81103 60.6109 7.81103C60.7281 7.79367 60.8584 7.87178 60.8758 7.98895C60.8931 8.10611 60.828 8.21894 60.7108 8.2363C60.676 8.24063 60.6456 8.24498 60.6109 8.24498V8.2363ZM47.941 8.09309C47.8715 8.09309 47.8064 8.06272 47.763 8.00197C47.5936 7.75896 47.4677 7.46821 47.3852 7.13841C47.3548 7.02125 47.4286 6.90408 47.5459 6.87805C47.6631 6.85201 47.7803 6.92144 47.8064 7.0386C47.8759 7.31633 47.9801 7.55934 48.119 7.75896C48.1885 7.85876 48.1624 7.99329 48.0669 8.06272C48.0278 8.08875 47.9844 8.10177 47.941 8.10177V8.09309ZM49.4954 6.08392C49.5606 6.10562 49.6127 6.15769 49.6344 6.23146C49.7125 6.51787 49.7386 6.83465 49.7038 7.17313C49.6908 7.29463 49.5866 7.38142 49.465 7.3684C49.3478 7.35539 49.2566 7.25124 49.2696 7.13407C49.2957 6.84767 49.2783 6.5873 49.2132 6.35297C49.1828 6.2358 49.2479 6.11864 49.3652 6.08392C49.4086 6.07091 49.4563 6.07524 49.4954 6.08392ZM61.2318 7.62009C61.2057 7.62009 61.1797 7.62009 61.158 7.60707C61.0451 7.56368 60.9886 7.44217 61.0277 7.32935C61.1059 7.11238 61.1623 6.83899 61.184 6.53957C61.1927 6.41806 61.2926 6.33127 61.4142 6.33995C61.5357 6.34863 61.6226 6.45278 61.6139 6.57428C61.5878 6.9171 61.5271 7.2252 61.4315 7.48123C61.4011 7.56802 61.3143 7.62443 61.2275 7.62443L61.2318 7.62009ZM59.5688 7.04294C59.4776 7.04294 59.3908 6.98219 59.3604 6.89106C59.2736 6.61768 59.2171 6.31391 59.1954 5.98846C59.1867 5.86695 59.2779 5.7628 59.3951 5.75412C59.5124 5.74545 59.6209 5.83657 59.6296 5.95374C59.6513 6.24448 59.6991 6.51353 59.7772 6.75654C59.812 6.86937 59.7512 6.99087 59.6339 7.02993C59.6122 7.03861 59.5905 7.0386 59.5688 7.0386V7.04294ZM70.3803 6.87805C70.3543 6.87805 70.3282 6.87371 70.3022 6.86503C70.1893 6.82163 70.1372 6.69579 70.1806 6.58296C70.2805 6.33127 70.3586 6.06223 70.4151 5.78884C70.4368 5.67167 70.554 5.59356 70.6713 5.6196C70.7885 5.64564 70.8666 5.75846 70.8406 5.87563C70.7798 6.17505 70.693 6.47014 70.5844 6.74352C70.5497 6.83031 70.4672 6.88238 70.3803 6.88238V6.87805ZM47.5025 6.43976C47.3809 6.43976 47.2854 6.33995 47.2854 6.22279C47.2854 5.93204 47.3158 5.62828 47.3765 5.32018C47.3983 5.20301 47.5111 5.1249 47.6284 5.1466C47.7456 5.1683 47.8238 5.28112 47.8021 5.39829C47.75 5.68035 47.7196 5.95808 47.7196 6.22279C47.7196 6.34429 47.624 6.43976 47.5025 6.43976ZM39.587 6.19675C39.587 6.19675 39.548 6.19675 39.5262 6.18807C39.4134 6.15336 39.3439 6.03185 39.3786 5.91902C39.3786 5.90601 39.4828 5.56319 39.7086 5.07717C39.7564 4.96868 39.8866 4.92095 39.9952 4.96868C40.1037 5.02076 40.1515 5.1466 40.1037 5.25509C39.8953 5.71073 39.7998 6.03185 39.7954 6.03619C39.7694 6.13166 39.6826 6.19241 39.587 6.19241V6.19675ZM61.3838 5.90167C61.2752 5.90167 61.1797 5.81922 61.1667 5.70639C61.1406 5.433 61.0885 5.15528 61.0234 4.88189C60.993 4.76473 61.0668 4.64756 61.1797 4.61719C61.2969 4.59115 61.4142 4.66058 61.4446 4.77341C61.5184 5.06849 61.5705 5.36357 61.6009 5.65866C61.6139 5.77582 61.5271 5.88431 61.4055 5.89733C61.3968 5.89733 61.3925 5.89733 61.3838 5.89733V5.90167ZM49.0612 5.64998C48.97 5.64998 48.8875 5.59356 48.8572 5.50677C48.766 5.24641 48.6531 4.98604 48.5228 4.74303C48.4664 4.63888 48.5055 4.50436 48.614 4.44795C48.7182 4.39153 48.8528 4.43059 48.9093 4.53908C49.0482 4.80378 49.1698 5.08151 49.2696 5.36357C49.3087 5.4764 49.2523 5.60224 49.135 5.6413C49.109 5.64998 49.0873 5.65432 49.0612 5.65432V5.64998ZM59.4299 5.32452C59.4299 5.32452 59.4169 5.32452 59.4082 5.32452C59.2909 5.3115 59.2041 5.20735 59.2128 5.08585C59.2432 4.79076 59.2996 4.49134 59.3778 4.2006C59.4082 4.08343 59.5297 4.01834 59.6426 4.04872C59.7599 4.07909 59.8293 4.19626 59.7989 4.31342C59.7251 4.58247 59.6774 4.8602 59.647 5.13358C59.6339 5.24641 59.5428 5.32886 59.4299 5.32886V5.32452ZM70.7277 5.18566H70.719C70.5974 5.18566 70.5063 5.08151 70.5106 4.96C70.5106 4.91227 70.5106 4.8602 70.5106 4.81246C70.5106 4.58247 70.4932 4.35248 70.4585 4.13551C70.4411 4.01834 70.5193 3.90551 70.6409 3.88816C70.7624 3.8708 70.871 3.94891 70.8884 4.07041C70.9274 4.31342 70.9448 4.56077 70.9448 4.8168C70.9448 4.86887 70.9448 4.92529 70.9448 4.97736C70.9448 5.09453 70.8449 5.18566 70.7277 5.18566ZM47.8151 4.74303C47.789 4.74303 47.7673 4.74303 47.7413 4.73001C47.6284 4.69096 47.5676 4.56511 47.611 4.45229C47.6892 4.23531 47.7803 4.014 47.8846 3.80137C47.7673 3.66684 47.6457 3.53666 47.5198 3.41516C47.433 3.33271 47.4286 3.19384 47.5111 3.10705C47.5936 3.02026 47.7326 3.01592 47.8194 3.09837C47.9584 3.22856 48.0886 3.36742 48.2145 3.51496C48.2319 3.51496 48.2493 3.52364 48.2666 3.53232C48.3405 3.57138 48.3795 3.64515 48.3839 3.71892C48.3969 3.73628 48.4099 3.75363 48.423 3.77099C48.4968 3.86646 48.4751 4.00098 48.3795 4.07475C48.3318 4.10947 48.271 4.12683 48.2145 4.11381C48.1407 4.27003 48.0756 4.43059 48.0192 4.59115C47.9888 4.68228 47.9019 4.73435 47.8151 4.73435V4.74303ZM40.3078 4.61719C40.2687 4.61719 40.2296 4.60851 40.1949 4.58681C40.0907 4.52606 40.0603 4.39153 40.1211 4.28739C40.2774 4.02268 40.4511 3.77533 40.6291 3.54968C40.7029 3.45421 40.8375 3.44119 40.933 3.51062C41.0286 3.58439 41.0459 3.72326 40.9678 3.81439C40.8028 4.02702 40.6421 4.26135 40.4902 4.5087C40.4511 4.57813 40.3773 4.61285 40.3035 4.61285L40.3078 4.61719ZM60.9669 4.22229C60.8801 4.22229 60.8019 4.17022 60.7672 4.08777C60.663 3.8274 60.5371 3.57572 60.3981 3.33705C60.3374 3.2329 60.3721 3.10271 60.4763 3.04196C60.5805 2.98121 60.7151 3.01592 60.7716 3.12007C60.9192 3.3761 61.0538 3.64515 61.1667 3.92721C61.2101 4.04004 61.158 4.16588 61.0451 4.20928C61.019 4.22229 60.993 4.22663 60.9626 4.22663L60.9669 4.22229ZM59.8728 3.65383C59.8424 3.65383 59.8163 3.64949 59.7859 3.63647C59.6774 3.58873 59.6253 3.45855 59.673 3.35006C59.7685 3.12875 59.8771 2.91612 59.9987 2.71216C59.9683 2.69914 59.9422 2.67745 59.9205 2.65141C59.7468 2.43444 59.5558 2.23048 59.3474 2.04389C59.2605 1.96144 59.2519 1.82691 59.3344 1.73578C59.4168 1.64899 59.5515 1.64032 59.6426 1.72277C59.8641 1.92238 60.0725 2.14369 60.2592 2.37802C60.2766 2.39972 60.2896 2.42576 60.2983 2.45613C60.333 2.45613 60.3634 2.46915 60.3938 2.49085C60.4937 2.55594 60.5241 2.69047 60.4589 2.79027C60.3113 3.0246 60.1767 3.27195 60.0681 3.52798C60.0334 3.61043 59.9509 3.65817 59.8684 3.65817L59.8728 3.65383ZM70.4542 3.48459C70.3673 3.48459 70.2848 3.43251 70.2501 3.34572C70.1502 3.0897 70.0243 2.84669 69.8767 2.62103C69.8115 2.52123 69.8376 2.3867 69.9375 2.32161C70.0373 2.25652 70.1719 2.28256 70.2371 2.38236C70.4064 2.63405 70.5453 2.90744 70.6582 3.19384C70.7017 3.30667 70.6452 3.43251 70.5323 3.47591C70.5063 3.48459 70.4802 3.48893 70.4542 3.48893V3.48459ZM41.3846 3.25893C41.3282 3.25893 41.2674 3.23724 41.2283 3.1895C41.1458 3.10271 41.1501 2.96385 41.237 2.8814C41.4628 2.66877 41.7059 2.48217 41.9534 2.32161C42.0533 2.25652 42.1879 2.2869 42.253 2.3867C42.3181 2.48651 42.2877 2.62103 42.1879 2.68613C41.9621 2.82933 41.745 2.99857 41.5366 3.19384C41.4932 3.2329 41.4411 3.25026 41.389 3.25026L41.3846 3.25893ZM48.6227 3.2112C48.5793 3.2112 48.5359 3.19818 48.4968 3.17215C48.4012 3.10271 48.3795 2.96819 48.449 2.86838C48.6227 2.62537 48.8181 2.39538 49.0222 2.17841C49.1047 2.09162 49.2436 2.08728 49.3304 2.16973C49.4173 2.25218 49.4216 2.39104 49.3391 2.47783C49.1481 2.68179 48.9657 2.89442 48.8051 3.12441C48.7616 3.18082 48.6965 3.21554 48.627 3.21554L48.6227 3.2112ZM46.9901 2.93781C46.951 2.93781 46.9076 2.9248 46.8729 2.9031C46.6427 2.75122 46.3996 2.62103 46.1434 2.51255C46.0349 2.46481 45.9828 2.33897 46.0305 2.22614C46.0783 2.11766 46.2042 2.06558 46.3171 2.11332C46.595 2.23048 46.8642 2.37802 47.116 2.54292C47.2159 2.60802 47.2419 2.74254 47.1768 2.84235C47.1334 2.90744 47.0639 2.94215 46.9944 2.94215L46.9901 2.93781ZM42.8435 2.33897C42.7567 2.33897 42.6698 2.2869 42.6394 2.19577C42.596 2.08294 42.6568 1.9571 42.7697 1.91804C43.0563 1.81389 43.3515 1.74012 43.6555 1.70107C43.7727 1.68371 43.8812 1.7705 43.8986 1.88767C43.916 2.00483 43.8291 2.11766 43.7119 2.13068C43.4427 2.16539 43.1735 2.23048 42.9173 2.32595C42.8913 2.33463 42.8652 2.33897 42.8435 2.33897ZM45.4053 2.25218C45.4053 2.25218 45.3705 2.25218 45.3532 2.24784C45.0753 2.17841 44.8017 2.13068 44.5325 2.11332C44.411 2.10464 44.3241 2.00049 44.3328 1.87899C44.3415 1.75748 44.4457 1.66635 44.5673 1.67937C44.8582 1.70107 45.1578 1.7488 45.4617 1.82691C45.579 1.85729 45.6484 1.97445 45.618 2.09162C45.592 2.19143 45.5051 2.25652 45.4096 2.25652L45.4053 2.25218ZM60.8019 2.19577C60.7498 2.19577 60.6977 2.17841 60.6587 2.13935C60.5675 2.06124 60.5631 1.92238 60.6413 1.83125C60.8454 1.6056 61.0668 1.39731 61.3013 1.21505C61.3968 1.14128 61.5314 1.15864 61.6052 1.24976C61.679 1.34523 61.6617 1.47976 61.5705 1.55353C61.3534 1.72277 61.1536 1.9137 60.9669 2.122C60.9235 2.16973 60.8627 2.19577 60.8063 2.19577H60.8019ZM69.4989 2.05256C69.4468 2.05256 69.3904 2.03087 69.347 1.99181C69.1559 1.80956 68.9345 1.63598 68.6957 1.4841C68.5958 1.419 68.5654 1.28448 68.6305 1.18467C68.6957 1.08487 68.8303 1.05449 68.9301 1.11958C69.195 1.28882 69.4338 1.47542 69.6466 1.67937C69.7334 1.76182 69.7377 1.90068 69.6552 1.98747C69.6118 2.03087 69.5554 2.05256 69.4989 2.05256ZM49.8167 1.9571C49.7516 1.9571 49.6908 1.93106 49.6474 1.87465C49.5736 1.77918 49.5866 1.64466 49.6821 1.57088C49.9166 1.38429 50.1641 1.21505 50.4203 1.05883C50.5245 0.998076 50.6547 1.03279 50.7199 1.1326C50.7807 1.23675 50.7503 1.36693 50.6461 1.43202C50.4072 1.57522 50.1771 1.73578 49.9557 1.90936C49.9166 1.93974 49.8688 1.9571 49.8211 1.9571H49.8167ZM58.8133 1.56655C58.7699 1.56655 58.7308 1.55353 58.6917 1.53183C58.4616 1.37995 58.2185 1.24109 57.9623 1.11958C57.8537 1.06751 57.806 0.937323 57.8581 0.828837C57.9102 0.72035 58.0404 0.672616 58.149 0.72469C58.4225 0.854874 58.6874 1.00242 58.9305 1.16731C59.0304 1.23241 59.0565 1.36693 58.9913 1.46674C58.9479 1.52749 58.8784 1.56221 58.809 1.56221L58.8133 1.56655ZM62.161 1.12826C62.0828 1.12826 62.009 1.08487 61.9699 1.01543C61.9135 0.911287 61.9526 0.776763 62.0568 0.72035C62.3173 0.581488 62.5952 0.459983 62.8861 0.364515C62.999 0.32546 63.1249 0.386212 63.1596 0.499038C63.1987 0.611864 63.1379 0.737708 63.025 0.772424C62.7602 0.863553 62.504 0.972039 62.2608 1.10222C62.2261 1.11958 62.1914 1.12826 62.1566 1.12826H62.161ZM68.0487 1.11524C68.0183 1.11524 67.9923 1.1109 67.9619 1.09788C67.7144 0.993736 67.4495 0.898268 67.1716 0.815819C67.0544 0.781103 66.9893 0.663937 67.024 0.546772C67.0587 0.433946 67.176 0.364515 67.2932 0.39923C67.5885 0.48602 67.875 0.585827 68.1355 0.698653C68.2441 0.746387 68.2962 0.872232 68.2484 0.985058C68.2137 1.06751 68.1312 1.11524 68.0487 1.11524ZM51.3017 1.06751C51.2192 1.06751 51.1367 1.01977 51.102 0.937324C51.0542 0.828837 51.102 0.698653 51.2149 0.650919C51.4841 0.533754 51.7663 0.429607 52.0529 0.342817C52.1701 0.308102 52.2873 0.373194 52.3221 0.490359C52.3568 0.603185 52.2917 0.72469 52.1744 0.759406C51.9009 0.841855 51.636 0.937324 51.3842 1.05015C51.3581 1.06317 51.3277 1.06751 51.2973 1.06751H51.3017ZM57.2545 0.820158C57.2328 0.820158 57.2111 0.820158 57.1894 0.811479C56.9289 0.729029 56.6554 0.659598 56.3731 0.603185C56.2559 0.581488 56.1777 0.464322 56.2038 0.347157C56.2255 0.229991 56.3427 0.151881 56.46 0.177918C56.7596 0.23867 57.0505 0.312441 57.324 0.39923C57.4369 0.433946 57.502 0.55979 57.463 0.672616C57.4326 0.763745 57.3501 0.824497 57.2545 0.824497V0.820158ZM66.3901 0.629222C66.3901 0.629222 66.364 0.629222 66.351 0.629222L66.2338 0.607524C65.9906 0.56413 65.7475 0.533754 65.5086 0.516396C65.3914 0.507717 65.3002 0.40357 65.3089 0.282065C65.3176 0.16056 65.4218 0.0737708 65.5434 0.0824497C65.7909 0.104147 66.0471 0.134523 66.3032 0.177918L66.4205 0.199615C66.5377 0.221312 66.6159 0.334138 66.5985 0.451304C66.5811 0.555451 66.4899 0.629222 66.3857 0.629222H66.3901ZM63.7979 0.577148C63.6937 0.577148 63.6025 0.503377 63.5852 0.394891C63.5634 0.277725 63.6459 0.164899 63.7632 0.143202C64.0541 0.0954681 64.3537 0.0650919 64.6533 0.0520735C64.7575 0.0390551 64.8747 0.143202 64.8791 0.260368C64.8791 0.381873 64.7879 0.48168 64.6706 0.48602C64.3884 0.494698 64.1062 0.520735 63.837 0.568469C63.824 0.568469 63.8109 0.568469 63.8023 0.568469L63.7979 0.577148ZM52.9603 0.568469C52.8561 0.568469 52.7649 0.494698 52.7476 0.390551C52.7259 0.273386 52.804 0.16056 52.9212 0.138863C53.2078 0.0867892 53.5031 0.0477341 53.8027 0.0260368C53.9242 0.00867892 54.0285 0.104147 54.0371 0.225652C54.0458 0.347157 53.9546 0.451304 53.8374 0.459983C53.5508 0.48168 53.2686 0.516396 52.9994 0.568469C52.9864 0.568469 52.9734 0.568469 52.9603 0.568469ZM55.5568 0.48168C55.5568 0.48168 55.5438 0.48168 55.5351 0.48168C55.2442 0.455643 54.9576 0.438285 54.6841 0.433946C54.5625 0.433946 54.467 0.334138 54.4713 0.212634C54.4713 0.0954681 54.5712 0 54.6884 0C54.9707 0 55.2703 0.0216973 55.5742 0.0477341C55.6914 0.0607524 55.7826 0.1649 55.7696 0.286404C55.7609 0.39923 55.6654 0.48168 55.5525 0.48168H55.5568Z" fill="#261D2A"/>
<path d="M81.3485 94.383H81.2182C81.0966 94.383 81.0011 94.2789 81.0055 94.1617C81.0055 94.0402 81.101 93.9447 81.2269 93.9491H81.3485C81.5786 93.9491 81.8217 93.936 82.0692 93.9144C82.1908 93.9013 82.295 93.9881 82.308 94.1096C82.3211 94.2311 82.2342 94.3353 82.1127 94.3483C81.8521 94.3743 81.5916 94.3874 81.3485 94.3874V94.383ZM80.3628 94.3049C80.3628 94.3049 80.3368 94.3049 80.3281 94.3049C80.0198 94.2528 79.7246 94.1747 79.451 94.0749C79.3381 94.0315 79.2817 93.91 79.3208 93.7972C79.3642 93.6844 79.4901 93.6279 79.5987 93.6713C79.8461 93.7625 80.1153 93.8362 80.3976 93.884C80.5148 93.9057 80.593 94.0142 80.5756 94.1357C80.5582 94.2398 80.467 94.3179 80.3628 94.3179V94.3049ZM82.9507 94.2181C82.8508 94.2181 82.7596 94.1443 82.7379 94.0445C82.7162 93.9274 82.79 93.8145 82.9072 93.7885C83.1721 93.7364 83.4543 93.667 83.7366 93.5889C83.8538 93.5585 83.971 93.6236 84.0058 93.7408C84.0362 93.8579 83.971 93.9751 83.8538 94.0098C83.5585 94.0923 83.272 94.1617 82.9941 94.2181C82.9811 94.2181 82.9637 94.2181 82.9507 94.2181ZM84.6223 93.7538C84.5311 93.7538 84.4486 93.6974 84.4182 93.6106C84.3792 93.4978 84.44 93.3719 84.5528 93.3329C84.6918 93.2851 84.8307 93.2331 84.974 93.1766C85.0999 93.1289 85.2215 93.0768 85.3387 93.0204C85.4473 92.9683 85.5776 93.0161 85.6297 93.1246C85.6818 93.2331 85.6297 93.3632 85.5255 93.4153C85.3995 93.4717 85.2693 93.5281 85.1347 93.5846C84.987 93.641 84.8438 93.693 84.7005 93.7451C84.6788 93.7538 84.6527 93.7581 84.631 93.7581L84.6223 93.7538ZM78.7476 93.7017C78.7085 93.7017 78.6651 93.6887 78.6304 93.667C78.3699 93.5021 78.1311 93.3068 77.9226 93.0855C77.8402 92.9987 77.8401 92.8599 77.927 92.7774C78.0138 92.695 78.1528 92.695 78.2353 92.7818C78.422 92.977 78.6347 93.1506 78.8649 93.2981C78.9647 93.3632 78.9951 93.4978 78.93 93.5976C78.8866 93.6627 78.8171 93.6974 78.7476 93.6974V93.7017ZM86.1767 92.9944C86.1116 92.9944 86.0465 92.964 86.0031 92.9076C85.9293 92.8121 85.951 92.6733 86.0465 92.6038C86.2723 92.4389 86.4677 92.248 86.6327 92.044C86.7065 91.9486 86.8454 91.9356 86.9366 92.0093C87.0321 92.0831 87.0451 92.222 86.9713 92.3131C86.7846 92.5474 86.5632 92.7601 86.307 92.951C86.2679 92.9814 86.2245 92.9944 86.1767 92.9944ZM77.5536 92.465C77.4798 92.465 77.4103 92.4259 77.3669 92.3608C77.2149 92.1091 77.0846 91.8314 76.9761 91.5407C76.937 91.4278 76.9935 91.302 77.1064 91.2629C77.2192 91.2239 77.3452 91.2803 77.3842 91.3931C77.4798 91.6578 77.597 91.9095 77.7359 92.1395C77.7967 92.2437 77.7663 92.3738 77.6621 92.4389C77.6274 92.4606 77.5883 92.4693 77.5492 92.4693L77.5536 92.465ZM87.2362 91.6492C87.2101 91.6492 87.1797 91.6448 87.1537 91.6318C87.0408 91.5884 86.9887 91.4582 87.0365 91.3497C87.1363 91.1067 87.2015 90.842 87.2362 90.5686C87.2492 90.4515 87.3621 90.3603 87.4793 90.382C87.5966 90.3951 87.6834 90.5035 87.666 90.625C87.627 90.9375 87.5488 91.2412 87.4359 91.519C87.4012 91.6014 87.3187 91.6535 87.2362 91.6535V91.6492ZM76.9587 90.842C76.8545 90.842 76.7633 90.7682 76.746 90.6641C76.6939 90.3777 76.6635 90.0783 76.6548 89.7702C76.6548 89.6487 76.746 89.5489 76.8632 89.5445C76.9761 89.5315 77.0846 89.6356 77.089 89.7528C77.0977 90.0392 77.1281 90.3169 77.1758 90.586C77.1975 90.7032 77.1194 90.816 77.0021 90.8377C76.9891 90.8377 76.9761 90.8377 76.9631 90.8377L76.9587 90.842ZM87.4663 89.9437C87.3534 89.9437 87.2579 89.857 87.2492 89.7441C87.2275 89.4794 87.1797 89.206 87.1103 88.924C87.0799 88.8068 87.1537 88.6896 87.2666 88.6593C87.3795 88.6332 87.5011 88.7027 87.5314 88.8155C87.6096 89.1192 87.6574 89.4187 87.6834 89.7051C87.6921 89.8266 87.6053 89.9307 87.4837 89.9394C87.4793 89.9394 87.4707 89.9394 87.4663 89.9394V89.9437ZM76.8979 89.1149C76.8979 89.1149 76.8849 89.1149 76.8762 89.1149C76.7547 89.1019 76.6678 88.9977 76.6808 88.8806C76.6982 88.7157 76.7156 88.5464 76.746 88.3772C76.7633 88.26 76.8762 88.1819 76.9935 88.1949C77.1107 88.2123 77.1932 88.3251 77.1758 88.4423C77.1498 88.6029 77.1324 88.7591 77.115 88.9153C77.1064 89.0281 77.0108 89.1106 76.8979 89.1106V89.1149ZM87.0538 88.2644C86.967 88.2644 86.8845 88.2123 86.8498 88.1255C86.7499 87.8695 86.6327 87.6091 86.4981 87.3574C86.4416 87.2489 86.485 87.1188 86.5892 87.0667C86.6978 87.0103 86.828 87.0537 86.8801 87.1578C87.0191 87.4269 87.145 87.7002 87.2492 87.9693C87.2926 88.0821 87.2362 88.208 87.1276 88.2514C87.1016 88.26 87.0755 88.2644 87.0495 88.2644H87.0538ZM86.2549 86.7239C86.1854 86.7239 86.1116 86.6891 86.0725 86.6241C85.9206 86.3854 85.7556 86.1554 85.5819 85.9297C85.5515 85.8907 85.5385 85.8473 85.5341 85.8039C85.482 85.7779 85.443 85.7301 85.4256 85.6694C85.3952 85.5522 85.4603 85.435 85.5776 85.4003C85.8468 85.3222 86.116 85.2311 86.3765 85.1269C86.4894 85.0836 86.6153 85.1356 86.6587 85.2441C86.7021 85.3526 86.65 85.4828 86.5415 85.5262C86.3591 85.5999 86.1724 85.6694 85.9814 85.7301C86.142 85.9428 86.2983 86.1597 86.4416 86.381C86.5067 86.4809 86.4763 86.6154 86.3765 86.6805C86.3417 86.7022 86.2983 86.7152 86.2592 86.7152L86.2549 86.7239ZM83.9233 86.099C83.806 86.099 83.7105 86.0035 83.7062 85.8864C83.7062 85.7648 83.7973 85.6694 83.9189 85.665C84.1838 85.6607 84.466 85.6347 84.7526 85.5869C84.8742 85.5696 84.9827 85.6477 85.0001 85.7692C85.0174 85.8863 84.9393 85.9992 84.8221 86.0165C84.5138 86.0643 84.2142 86.0946 83.9276 86.099H83.9233ZM83.0592 86.0382C83.0592 86.0382 83.0332 86.0382 83.0201 86.0382C82.6554 85.9731 82.3558 85.8603 82.1257 85.7084C82.0258 85.639 81.9998 85.5045 82.0692 85.409C82.1387 85.3092 82.2733 85.2832 82.3688 85.3526C82.5425 85.4698 82.7943 85.5609 83.0939 85.613C83.2112 85.6347 83.2893 85.7475 83.272 85.8647C83.2546 85.9688 83.1634 86.0426 83.0592 86.0426V86.0382ZM85.1868 85.3569C85.1303 85.3569 85.0739 85.3352 85.0305 85.2875C84.8307 85.0749 84.6223 84.8796 84.4139 84.7104C84.3227 84.6366 84.3097 84.4977 84.3835 84.4066C84.4617 84.3155 84.5963 84.2981 84.6874 84.3762C84.9089 84.5585 85.126 84.7624 85.3387 84.9881C85.4212 85.0749 85.4169 85.2137 85.3301 85.2962C85.2866 85.3352 85.2345 85.3569 85.1824 85.3569H85.1868ZM87.2405 85.1747C87.1624 85.1747 87.0886 85.1356 87.0495 85.0619C86.993 84.9577 87.0278 84.8232 87.132 84.7668C87.3795 84.6279 87.6183 84.476 87.8354 84.3111C87.9309 84.2374 88.0655 84.2591 88.1393 84.3545C88.2131 84.45 88.1914 84.5889 88.0959 84.6583C87.8614 84.8319 87.6096 84.9968 87.3404 85.1443C87.3057 85.1617 87.2709 85.1703 87.2362 85.1703L87.2405 85.1747ZM81.8738 85.0098C81.8738 85.0098 81.8608 85.0098 81.8565 85.0098C81.7392 85.0011 81.6481 84.8926 81.6567 84.7754C81.6741 84.5498 81.7653 84.3111 81.9259 84.0594C81.9694 83.99 82.0215 83.9249 82.0736 83.8685C82.1561 83.7817 82.295 83.7774 82.3819 83.8598C82.4687 83.9423 82.473 84.0811 82.3905 84.1679C82.3558 84.2026 82.3254 84.246 82.295 84.2938C82.1734 84.4847 82.104 84.6583 82.0909 84.8145C82.0823 84.9273 81.9867 85.0141 81.8738 85.0141V85.0098ZM83.8408 84.2677C83.806 84.2677 83.767 84.2591 83.7366 84.2417C83.4674 84.0942 83.2199 84.003 83.0028 83.977C82.8855 83.964 82.7987 83.8555 82.8117 83.734C82.8247 83.6168 82.9376 83.53 83.0505 83.543C83.3241 83.5734 83.6237 83.6819 83.945 83.8598C84.0492 83.9162 84.0883 84.0508 84.0318 84.1549C83.9927 84.2287 83.9189 84.2677 83.8408 84.2677ZM85.812 77.1901C85.8424 77.2074 85.8685 77.2378 85.8858 77.2682C86.0335 77.5416 86.1898 77.7499 86.3591 77.8844C86.4503 77.9625 86.4633 78.097 86.3895 78.1881C86.3114 78.2793 86.1724 78.2923 86.0856 78.2185C85.8728 78.0449 85.6774 77.7933 85.5081 77.4721C85.4516 77.368 85.4907 77.2335 85.5949 77.1771C85.6687 77.138 85.7512 77.1467 85.8164 77.1857L85.812 77.1901ZM88.6213 84.1332C88.5648 84.1332 88.5127 84.1115 88.4693 84.0725C88.3825 83.99 88.3825 83.8511 88.4693 83.7644C88.6647 83.5647 88.8427 83.3478 88.999 83.1265C89.0685 83.0266 89.2031 83.0006 89.303 83.07C89.4028 83.1395 89.4246 83.274 89.3594 83.3738C89.1901 83.6168 88.999 83.8511 88.7819 84.0681C88.7385 84.1115 88.6821 84.1332 88.6256 84.1332H88.6213ZM89.5982 82.7099C89.5678 82.7099 89.5418 82.7055 89.5114 82.6925C89.4028 82.6448 89.3507 82.5189 89.3985 82.4061C89.5114 82.1501 89.5895 81.8854 89.6416 81.625C89.6634 81.5078 89.7762 81.4297 89.8935 81.4514C90.0107 81.4731 90.0889 81.5859 90.0672 81.7031C90.0107 81.9982 89.9195 82.2889 89.798 82.5753C89.7632 82.6578 89.6807 82.7055 89.5982 82.7055V82.7099ZM89.9152 81.0175C89.798 81.0175 89.7024 80.9263 89.6981 80.8092C89.6851 80.5401 89.6416 80.2668 89.5678 80.002C89.5374 79.8849 89.6026 79.7677 89.7198 79.7373C89.837 79.707 89.9543 79.7721 89.9847 79.8892C90.0672 80.1886 90.1149 80.4924 90.128 80.7918C90.1323 80.9133 90.0411 81.0131 89.9195 81.0175H89.9109H89.9152ZM89.468 79.3555C89.3898 79.3555 89.3117 79.3121 89.2726 79.234C89.151 78.9909 89.0034 78.7523 88.8384 78.531C88.7863 78.4659 88.7819 78.3791 88.8167 78.3097C88.795 78.3097 88.7732 78.314 88.7515 78.3183C88.63 78.3313 88.5214 78.2532 88.5041 78.1361C88.4867 78.0189 88.5692 77.9061 88.6864 77.8887C88.9686 77.8497 89.2465 77.7933 89.5157 77.7238C89.633 77.6935 89.7502 77.7629 89.7806 77.88C89.811 77.9972 89.7415 78.1144 89.6243 78.1448C89.4723 78.1838 89.316 78.2185 89.1597 78.2489C89.1684 78.2576 89.1727 78.2663 89.1814 78.2749C89.3638 78.518 89.5244 78.7783 89.659 79.043C89.7111 79.1515 89.6677 79.2817 89.5635 79.3338C89.5331 79.3511 89.4984 79.3555 89.468 79.3555ZM87.6226 78.4008C87.3925 78.3921 87.1754 78.3921 86.967 78.3704C86.8498 78.3574 86.7586 78.2532 86.7716 78.1317C86.7846 78.0146 86.8888 77.9321 87.0104 77.9365C87.2058 77.9538 87.4142 77.9668 87.627 77.9625C87.7008 77.9625 87.7746 77.9625 87.8528 77.9625C87.9743 77.9625 88.0742 78.0536 88.0785 78.1708C88.0785 78.2923 87.9874 78.3921 87.8701 78.3964C87.7876 78.3964 87.7095 78.3964 87.6313 78.3964L87.6226 78.4008ZM88.4346 77.9712C88.3825 77.9712 88.326 77.9538 88.287 77.9104C88.0785 77.7151 87.8614 77.5416 87.6357 77.4027C87.5358 77.3376 87.5054 77.2031 87.5705 77.1033C87.6357 77.0035 87.7703 76.9731 87.8701 77.0382C88.1176 77.1944 88.3564 77.3854 88.5865 77.598C88.6734 77.6804 88.6777 77.8193 88.5952 77.9061C88.5518 77.9495 88.4954 77.9755 88.4389 77.9755L88.4346 77.9712ZM90.4015 77.8844C90.3147 77.8844 90.2322 77.8323 90.1974 77.7455C90.154 77.6327 90.2104 77.5069 90.319 77.4635C90.5882 77.3593 90.8444 77.2378 91.0702 77.1033C91.1744 77.0425 91.3046 77.0772 91.3654 77.1814C91.4262 77.2855 91.3915 77.4157 91.2873 77.4765C91.0398 77.6197 90.7662 77.7542 90.4753 77.867C90.4493 77.8757 90.4232 77.88 90.3972 77.88L90.4015 77.8844ZM86.967 77.0642C86.967 77.0642 86.9236 77.0642 86.9062 77.0556C86.6283 76.9731 86.3765 76.9601 86.1767 77.0208C86.0595 77.0556 85.9423 76.9948 85.9032 76.8776C85.8685 76.7648 85.9293 76.6433 86.0465 76.6042C86.3287 76.5175 86.6674 76.5261 87.0278 76.6346C87.1407 76.6693 87.2058 76.7908 87.1754 76.9037C87.1494 76.9991 87.0625 77.0599 86.967 77.0599V77.0642ZM91.8864 77.0035C91.8257 77.0035 91.7692 76.9774 91.7258 76.9297C91.6476 76.8386 91.652 76.7041 91.7432 76.6216C91.9516 76.435 92.1296 76.2267 92.2729 76.0097C92.338 75.9099 92.4726 75.8839 92.5725 75.9446C92.6723 76.0097 92.7027 76.1443 92.6376 76.2441C92.477 76.4914 92.2729 76.7301 92.0341 76.9427C91.9907 76.9818 91.9429 76.9991 91.8908 76.9991L91.8864 77.0035ZM92.807 75.5628C92.807 75.5628 92.7679 75.5628 92.7505 75.5541C92.6333 75.5237 92.5681 75.4022 92.5985 75.2894C92.642 75.1375 92.668 74.9813 92.6854 74.8164C92.6941 74.6992 92.7027 74.5864 92.7114 74.4779C92.7201 74.3564 92.8156 74.2609 92.9416 74.274C93.0631 74.2826 93.1543 74.3824 93.1456 74.5039C93.1413 74.6211 93.1283 74.7383 93.1196 74.8598C93.1022 75.0464 93.0675 75.233 93.0197 75.4066C92.9937 75.502 92.9068 75.5671 92.8113 75.5671L92.807 75.5628ZM92.9285 73.84C92.8113 73.84 92.7158 73.7489 92.7114 73.6317C92.6984 73.341 92.668 73.0589 92.6246 72.7985C92.6029 72.6814 92.681 72.5685 92.8026 72.5468C92.9198 72.5208 93.0327 72.6033 93.0544 72.7248C93.1022 73.0068 93.1369 73.3063 93.15 73.6144C93.1543 73.7359 93.0631 73.8357 92.9416 73.84H92.9329H92.9285ZM92.6246 72.1389C92.5334 72.1389 92.4509 72.0825 92.4205 71.9914C92.325 71.7224 92.2078 71.4707 92.0732 71.2494C92.0124 71.1452 92.0428 71.015 92.147 70.9499C92.2468 70.8892 92.3814 70.9196 92.4466 71.0237C92.5985 71.2754 92.7288 71.5531 92.833 71.8482C92.8721 71.961 92.8113 72.0869 92.6984 72.1259C92.6767 72.1346 92.6506 72.1389 92.6246 72.1389ZM91.7215 70.6722C91.665 70.6722 91.6129 70.6505 91.5695 70.6115C91.2265 70.2773 90.9356 70.1645 90.9356 70.1645C90.8227 70.1211 90.7662 69.9953 90.8096 69.8868C90.8531 69.7739 90.979 69.7219 91.0875 69.7609C91.1006 69.7653 91.4609 69.9041 91.8734 70.3033C91.9603 70.3858 91.9603 70.5247 91.8734 70.6115C91.83 70.6548 91.7736 70.6765 91.7171 70.6765L91.7215 70.6722Z" fill="#261D2A"/>
<path d="M88.0612 24.2832C84.5051 20.9852 79.8505 20.2041 74.9484 22.0788C70.6846 23.7104 68.1749 26.0581 67.4889 29.0566C67.4585 29.1825 67.4455 29.304 67.4237 29.4298C66.551 28.5923 65.7781 27.9978 65.2441 27.6767C62.717 26.1622 71.7049 15.4351 70.5239 14.6713C69.3429 13.9076 24.1516 16.8541 24.1516 16.8541C22.0327 16.9886 32.9875 27.2341 34.0296 28.4925C34.416 28.9568 32.7227 31.0311 30.6863 33.9168C30.7818 32.9405 30.7167 31.8903 30.3606 30.8054C29.3967 27.885 26.6743 25.7804 22.2759 24.5566C17.2174 23.1506 12.6584 24.37 9.42794 27.9848C5.61568 32.2548 4.42163 39.2414 6.59262 44.6006C10.9737 55.4189 23.1052 59.2766 32.8486 62.3794C33.9949 62.7439 35.1194 63.0997 36.1962 63.4599C42.1882 67.795 47.7329 69.227 47.7329 69.227C48.0281 70.2772 48.636 78.5265 48.3408 79.1948C48.0455 79.863 42.5399 84.0289 38.1458 88.6244C37.2644 89.5487 67.4324 88.3163 68.887 87.5916C70.3416 86.8669 56.8901 78.4006 56.8901 78.4006C56.8901 78.4006 56.0651 71.2058 56.1042 68.5891C56.1042 68.5891 61.7271 65.6426 66.7551 60.9821C67.8145 60.5221 68.9174 60.0621 70.0506 59.5934C78.5479 56.0654 89.125 51.6739 92.4466 40.5606C94.1052 35.0234 92.2599 28.1801 88.0568 24.2876L88.0612 24.2832ZM11.0171 42.8084C9.54083 39.1676 10.4092 34.0557 12.9884 31.1656C14.9987 28.9178 17.6907 28.2408 20.995 29.1565C22.8924 29.6815 25.2675 30.6536 25.8189 32.2852C26.392 33.9863 24.8767 36.0736 24.8376 36.1213C24.0387 37.1628 24.2254 38.6512 25.2631 39.4583C25.7581 39.8445 26.3617 39.9964 26.9435 39.9487C24.9635 43.8542 23.8303 48.1416 25.8015 51.7737C26.6135 53.2665 27.5079 54.6334 28.4588 55.9005C20.9993 53.2665 13.8307 49.7342 11.0214 42.8084H11.0171ZM87.8701 39.1893C85.6991 46.4535 79.5943 50.1811 72.9077 53.184C73.6805 51.6305 74.2189 50.0032 74.4057 48.3195C74.8659 44.184 74.1365 40.5562 72.899 37.5273C73.0596 37.4361 73.216 37.332 73.3549 37.2018C74.3145 36.3079 74.3709 34.8021 73.4808 33.8344C73.4634 33.817 71.7266 31.8643 72.1435 30.1068C72.5386 28.4318 74.8138 27.2428 76.6505 26.5398C79.8505 25.316 82.5946 25.737 84.809 27.7852C87.6487 30.4192 88.9947 35.4313 87.8701 39.1936V39.1893Z" fill="#E8C01B"/>
<path d="M28.2809 42.0319C28.1897 42.0319 28.1028 41.9755 28.0725 41.88C27.7555 40.8906 28.2982 40.244 28.6282 40.0401C28.7281 39.975 28.8627 40.0097 28.9278 40.1095C28.9886 40.2093 28.9582 40.3438 28.8584 40.4089C28.828 40.4306 28.1984 40.8472 28.4893 41.7498C28.524 41.8626 28.4632 41.9841 28.3503 42.0232C28.3286 42.0319 28.3069 42.0319 28.2852 42.0319H28.2809Z" fill="#FDFDFF"/>
<path d="M29.4186 43.6195C29.3274 43.6195 29.2405 43.563 29.2101 43.4676C28.8932 42.4782 29.4359 41.8316 29.7659 41.6276C29.8658 41.5625 30.0004 41.5973 30.0655 41.6971C30.1263 41.7969 30.0959 41.9314 29.996 41.9965C29.9657 42.0182 29.3361 42.4348 29.627 43.3374C29.6617 43.4502 29.6009 43.5717 29.488 43.6108C29.4663 43.6195 29.4446 43.6195 29.4229 43.6195H29.4186Z" fill="#FDFDFF"/>
<path d="M27.4689 44.9176C27.3777 44.9176 27.2908 44.8612 27.2604 44.7657C26.9435 43.7763 27.4862 43.1297 27.8162 42.9258C27.9161 42.865 28.0507 42.8954 28.1158 42.9952C28.1766 43.095 28.1462 43.2295 28.0463 43.2946C28.0159 43.3163 27.3864 43.7329 27.6773 44.6355C27.712 44.7483 27.6512 44.8698 27.5383 44.9089C27.5166 44.9176 27.4949 44.9176 27.4732 44.9176H27.4689Z" fill="#FDFDFF"/>
<path d="M28.441 46.7916C28.3498 46.7916 28.263 46.7352 28.2326 46.6397C27.9156 45.6503 28.4584 45.0037 28.7884 44.7998C28.8883 44.7347 29.0229 44.7694 29.088 44.8692C29.1531 44.969 29.1184 45.1035 29.0185 45.1686C28.9881 45.186 28.3585 45.6069 28.6494 46.5095C28.6842 46.6223 28.6234 46.7438 28.5105 46.7829C28.4888 46.7916 28.4671 46.7916 28.4454 46.7916H28.441Z" fill="#FDFDFF"/>
<path d="M30.3434 45.4811C30.2522 45.4811 30.1653 45.4246 30.135 45.3292C29.818 44.3398 30.3607 43.6932 30.6907 43.4892C30.7949 43.4285 30.9252 43.4589 30.9903 43.5587C31.0511 43.6585 31.0207 43.793 30.9209 43.8581C30.8905 43.8798 30.2609 44.2964 30.5518 45.199C30.5865 45.3118 30.5257 45.4333 30.4128 45.4724C30.3911 45.4811 30.3694 45.4811 30.3477 45.4811H30.3434Z" fill="#FDFDFF"/>
<path d="M26.6871 48.2203C26.5959 48.2203 26.5091 48.1639 26.4787 48.0684C26.1617 47.079 26.7045 46.4324 27.0345 46.2285C27.1387 46.1634 27.2689 46.1981 27.3341 46.2979C27.3949 46.3977 27.3645 46.5322 27.2646 46.5973C27.2342 46.619 26.6046 47.0356 26.8955 47.9382C26.9303 48.051 26.8695 48.1725 26.7566 48.2116C26.7349 48.2203 26.7132 48.2203 26.6915 48.2203H26.6871Z" fill="#FDFDFF"/>
<path d="M28.1634 49.6299C28.0896 49.6299 28.0201 49.5952 27.9811 49.5301C27.3992 48.6188 27.7206 47.8551 27.9724 47.5817C28.0549 47.4949 28.1895 47.4862 28.2807 47.5687C28.3675 47.6511 28.3762 47.7857 28.2937 47.8725C28.272 47.8985 27.803 48.4453 28.3458 49.2958C28.4109 49.3956 28.3805 49.5301 28.2807 49.5952C28.2459 49.6169 28.2025 49.6299 28.1634 49.6299Z" fill="#FDFDFF"/>
<path d="M59.4255 63.8985C59.3213 63.8985 59.2258 63.8204 59.2128 63.7119C59.1954 63.5947 59.2779 63.4819 59.3951 63.4645C59.4299 63.4602 60.1767 63.33 60.2679 62.384C60.2809 62.2668 60.3851 62.1757 60.5067 62.1887C60.6239 62.2018 60.7151 62.3059 60.7021 62.4274C60.5979 63.4602 59.8423 63.8377 59.4603 63.8942C59.4516 63.8942 59.4385 63.8942 59.4299 63.8942L59.4255 63.8985Z" fill="#FDFDFF"/>
<path d="M59.0129 61.9885C58.9087 61.9885 58.8132 61.9104 58.8002 61.8019C58.7828 61.6848 58.8653 61.5719 58.9825 61.5546C59.0216 61.5502 59.7641 61.4157 59.8553 60.4697C59.8683 60.3525 59.9725 60.2614 60.0941 60.2744C60.2113 60.2875 60.3025 60.3916 60.2895 60.5131C60.1853 61.5459 59.4298 61.9234 59.0477 61.9798C59.039 61.9798 59.0259 61.9798 59.0173 61.9798L59.0129 61.9885Z" fill="#FDFDFF"/>
<path d="M61.323 61.577C61.2188 61.577 61.1232 61.4989 61.1102 61.3904C61.0929 61.2732 61.1753 61.1604 61.2926 61.143C61.3317 61.1387 62.0741 61.0042 62.1653 60.0582C62.1783 59.941 62.2826 59.8542 62.4041 59.8629C62.5214 59.8759 62.6125 59.9801 62.5995 60.1016C62.4953 61.1344 61.7441 61.5119 61.3577 61.5683C61.349 61.5683 61.336 61.5683 61.3273 61.5683L61.323 61.577Z" fill="#FDFDFF"/>
<path d="M61.175 59.4677C61.0708 59.4677 60.9753 59.3896 60.9623 59.2811C60.9449 59.1639 61.0274 59.0511 61.1446 59.0338C61.1837 59.0294 61.9262 58.8949 62.0174 57.9489C62.0304 57.8274 62.1346 57.7449 62.2562 57.7536C62.3734 57.7666 62.4646 57.8708 62.4516 57.9923C62.3474 59.0251 61.5919 59.4026 61.2098 59.459C61.2011 59.459 61.1881 59.459 61.1794 59.459L61.175 59.4677Z" fill="#FDFDFF"/>
<path d="M58.9084 59.9147C58.8042 59.9147 58.7087 59.8366 58.6957 59.7281C58.6783 59.6109 58.7608 59.4981 58.878 59.4808C58.9171 59.4764 59.6596 59.3419 59.7508 58.3959C59.7638 58.2787 59.868 58.1919 59.9896 58.2006C60.1068 58.2136 60.198 58.3178 60.185 58.4393C60.0808 59.4721 59.3253 59.8496 58.9432 59.906C58.9345 59.906 58.9215 59.906 58.9128 59.906L58.9084 59.9147Z" fill="#FDFDFF"/>
<path d="M63.3557 58.8559C63.2515 58.8559 63.156 58.7777 63.1429 58.6693C63.1256 58.5521 63.2081 58.4393 63.3253 58.4219C63.3644 58.4176 64.1069 58.283 64.198 57.3414C64.2111 57.2242 64.3153 57.1374 64.4368 57.1461C64.5541 57.1591 64.6453 57.2633 64.6322 57.3848C64.528 58.4176 63.7725 58.7951 63.3904 58.8515C63.3817 58.8515 63.3687 58.8515 63.36 58.8515L63.3557 58.8559Z" fill="#FDFDFF"/>
<path d="M62.9731 57.2591C62.8906 57.2591 62.8125 57.2114 62.7734 57.1289C62.7256 57.0204 62.7734 56.8946 62.8819 56.8425C62.9123 56.8295 63.5593 56.5127 63.403 55.5147C63.3856 55.3975 63.4637 55.2847 63.581 55.2673C63.7026 55.2499 63.8111 55.3281 63.8285 55.4452C63.9978 56.5127 63.3986 57.0812 63.0599 57.2331C63.0295 57.2461 62.9992 57.2504 62.9731 57.2504V57.2591Z" fill="#FDFDFF"/>
<path d="M70.0465 45.6114C70.0465 45.6114 70.0248 45.6114 70.0117 45.6114C69.8945 45.5941 69.812 45.4812 69.8294 45.3641C70.9236 38.1909 62.1962 31.2608 62.1093 31.1914C62.0138 31.1176 61.9965 30.9831 62.0746 30.8876C62.1484 30.7922 62.283 30.7791 62.3786 30.8529C62.4003 30.8703 64.6537 32.6494 66.7379 35.3095C69.5124 38.8549 70.7282 42.3525 70.2592 45.4335C70.2419 45.542 70.1507 45.6158 70.0465 45.6158V45.6114Z" fill="#FDFDFF"/>
<path d="M69.3472 51.1529C69.3038 51.1529 69.2604 51.1399 69.2213 51.1095C69.1258 51.0401 69.1041 50.9055 69.1735 50.8057C69.6425 50.1635 69.6642 48.2151 69.6338 47.5164C69.6294 47.3949 69.7206 47.2951 69.8422 47.2908C69.9594 47.2734 70.0636 47.3776 70.068 47.4991C70.0723 47.6076 70.1809 50.1635 69.5296 51.0618C69.4862 51.1182 69.421 51.1529 69.3515 51.1529H69.3472Z" fill="#FDFDFF"/>
<path d="M12.7667 28.3708C12.7103 28.3708 12.6495 28.3491 12.6061 28.3013C12.5236 28.2145 12.5323 28.0757 12.6191 27.9932C15.2113 25.5978 18.1682 25.5805 20.1915 25.9841C22.3712 26.4223 23.9169 27.4031 23.9821 27.4465C24.0819 27.5115 24.1123 27.6461 24.0472 27.7459C23.9821 27.8457 23.8475 27.8761 23.7476 27.811C23.6868 27.7719 17.6211 23.9662 12.9144 28.31C12.8709 28.3491 12.8188 28.3664 12.7667 28.3664V28.3708Z" fill="#FDFDFF"/>
<path d="M73.6499 25.502C73.5761 25.502 73.5023 25.4629 73.4632 25.3935C73.4024 25.2894 73.4371 25.1592 73.537 25.0984C73.5978 25.0637 79.7547 21.4793 84.8565 24.5777C84.9607 24.6384 84.9911 24.773 84.9303 24.8771C84.8696 24.9813 84.735 25.0116 84.6308 24.9509C79.7504 21.987 73.8149 25.4369 73.7584 25.476C73.7237 25.4977 73.6846 25.5063 73.6499 25.5063V25.502Z" fill="#FDFDFF"/>
<path d="M32.0103 84.2417C32.0103 84.2417 73.22 81.0783 73.6802 82.4365C74.1405 83.7948 74.3315 96.2143 74.3315 96.2143C74.3315 96.2143 33.1479 98.614 32.7354 98.1714C32.3229 97.7288 32.0146 84.2417 32.0146 84.2417H32.0103Z" fill="#403955"/>
<path d="M40.7036 86.3938C40.7036 86.3938 65.7872 84.1329 65.9131 84.5799C66.0391 85.0268 66.8336 93.9357 66.6165 93.8316C66.3994 93.7274 41.1856 95.4329 41.1118 95.0336C41.0379 94.6344 40.7036 86.3938 40.7036 86.3938Z" fill="#EEEBD5"/>
<path d="M42.9738 93.9355C41.9795 93.9355 41.9621 93.8531 41.9361 93.7402C41.8753 93.4582 41.6843 88.6023 41.6452 87.6303C41.6408 87.5131 41.7277 87.4133 41.8449 87.4046C41.9014 87.4003 47.4287 86.949 52.8996 86.5454C64.1366 85.7122 64.1757 85.8381 64.2582 86.0681C64.2756 86.1201 65.0702 92.4818 64.7532 92.7899C64.7054 92.8376 64.6316 92.8593 64.5621 92.8506C64.3407 92.8376 61.4924 92.9982 58.2011 93.1848C48.3752 93.7402 44.5109 93.9355 42.9738 93.9355ZM42.3486 93.5102C43.6034 93.5797 52.6695 93.0676 58.1794 92.7552C62.5779 92.5078 63.9543 92.434 64.4145 92.421C64.4319 91.5184 64.0151 87.1573 63.8718 86.3241C62.4954 86.2416 50.3291 87.1573 42.0881 87.8255C42.1706 89.9085 42.2921 92.8203 42.3486 93.5146V93.5102Z" fill="#261D2A"/>
<path d="M51.0676 70.1427C49.1614 70.1427 46.8732 69.674 44.2029 68.3722C44.0943 68.3201 44.0509 68.1899 44.103 68.0814C44.1551 67.9729 44.2854 67.9295 44.3939 67.9816C49.2179 70.3293 52.6741 69.8649 54.7235 69.0621C56.9423 68.1942 58.0408 66.7492 58.0538 66.7318C58.1276 66.6364 58.2622 66.6147 58.3577 66.6884C58.4533 66.7622 58.475 66.8967 58.4012 66.9922C58.3664 67.0356 55.974 70.1427 51.0719 70.1427H51.0676Z" fill="#261D2A"/>
<path d="M38.1584 64.0065C38.1236 64.0065 38.0846 63.9978 38.0498 63.9761C34.3592 61.8758 29.4571 56.573 29.4093 56.5209C29.3268 56.4341 29.3355 56.2952 29.4223 56.2128C29.5092 56.1347 29.6481 56.139 29.7306 56.2258C29.7784 56.2779 34.6327 61.533 38.2669 63.5985C38.3711 63.6593 38.4059 63.7895 38.3494 63.8936C38.3104 63.9631 38.2365 64.0021 38.1584 64.0021V64.0065Z" fill="#261D2A"/>
<path d="M65.2484 62.0408C65.1486 62.0408 65.0617 61.9757 65.0357 61.8759C65.0053 61.7587 65.0791 61.6416 65.1963 61.6155C65.9822 61.4246 69.9725 56.3084 72.2998 53.1275C72.3693 53.0321 72.5082 53.0104 72.6037 53.0798C72.6993 53.1492 72.721 53.2881 72.6515 53.3836C72.0262 54.2384 66.5032 61.7414 65.3005 62.0365C65.2832 62.0365 65.2658 62.0408 65.2484 62.0408Z" fill="#261D2A"/>
<path d="M48.3365 79.4069C48.2236 79.4069 48.1324 79.3245 48.1194 79.2117C48.1064 79.0945 48.1976 78.986 48.3148 78.9773L56.8642 78.1832C56.9814 78.1745 57.0899 78.2613 57.0986 78.3785C57.1116 78.4957 57.0205 78.6041 56.9032 78.6128L48.3539 79.4069C48.3539 79.4069 48.3408 79.4069 48.3322 79.4069H48.3365Z" fill="#261D2A"/>
<path d="M89.0773 29.5434C88.9861 29.5434 88.9036 29.487 88.8732 29.4002C88.3348 27.8814 86.8716 26.7705 86.8585 26.7575C86.763 26.6837 86.7413 26.5492 86.8151 26.4537C86.8889 26.3582 87.0235 26.3365 87.1191 26.4103C87.1842 26.458 88.6995 27.608 89.2857 29.2527C89.3248 29.3655 89.2683 29.4913 89.1554 29.5304C89.1294 29.5391 89.1077 29.5434 89.0816 29.5434H89.0773Z" fill="#FDFDFF"/>
<path d="M30.851 18.3123C30.851 18.3123 64.7662 15.2139 64.3798 15.9777C63.9934 16.7414 57.0028 24.47 48.6618 25.5115C40.3209 26.5529 28.3978 18.4078 30.851 18.3123Z" fill="#D37E3A"/>
<path d="M47.3028 29.4558C46.7254 29.4558 46.1479 29.4167 45.5661 29.3343C35.2278 27.8632 29.0275 21.1414 28.9667 21.0719C28.8885 20.9808 28.8929 20.8463 28.9797 20.7638C29.0665 20.6814 29.2055 20.6901 29.288 20.7768C29.3488 20.8419 35.4492 27.4509 45.6268 28.9003C55.7654 30.3454 65.9126 18.0256 66.0168 17.9041C66.0906 17.813 66.2295 17.7956 66.3207 17.8737C66.4119 17.9475 66.4293 18.0864 66.3511 18.1775C66.2556 18.299 57.0636 29.4514 47.2985 29.4514L47.3028 29.4558Z" fill="#261D2A"/>
<path d="M26.8522 40.3429C26.7436 40.3429 26.6481 40.2604 26.6351 40.1519C26.6221 40.0348 26.7089 39.9263 26.8261 39.9133C27.9854 39.7831 28.9016 39.3014 29.5572 38.4812C31.0335 36.6283 30.7079 33.6384 30.7035 33.6124C30.6905 33.4952 30.773 33.3867 30.8946 33.3737C31.0161 33.365 31.1203 33.4431 31.1334 33.5646C31.1464 33.6948 31.4851 36.7628 29.8959 38.7546C29.1665 39.6703 28.1504 40.204 26.8739 40.3472C26.8652 40.3472 26.8565 40.3472 26.8478 40.3472L26.8522 40.3429Z" fill="#261D2A"/>
<path d="M72.6688 37.1932C72.6688 37.1932 72.6602 37.1932 72.6558 37.1932C70.7757 37.0847 69.3472 36.4208 68.418 35.2144C66.6335 32.9058 67.2978 29.482 67.3239 29.3344C67.3456 29.2172 67.4585 29.1391 67.58 29.1652C67.6973 29.1869 67.7754 29.304 67.7494 29.4212C67.7407 29.4559 67.0981 32.8016 68.7611 34.9497C69.6121 36.0519 70.932 36.6594 72.6819 36.7592C72.8034 36.7679 72.8946 36.8677 72.8859 36.9892C72.8773 37.1064 72.7817 37.1932 72.6688 37.1932Z" fill="#261D2A"/>
<path d="M35.4148 20.3474C35.3149 20.3474 35.2237 20.2779 35.202 20.1738C35.1803 20.0566 35.2541 19.9438 35.3714 19.9178C48.736 17.2707 59.0525 18.4467 59.1524 18.4597C59.2696 18.4727 59.3565 18.5812 59.3434 18.6984C59.3304 18.8155 59.2219 18.9023 59.1003 18.8893C59.0004 18.8763 48.7447 17.709 35.4539 20.343C35.4408 20.343 35.4235 20.343 35.4104 20.343L35.4148 20.3474Z" fill="#261D2A"/>
<path d="M50.4858 92.4042C49.587 92.4042 49.3872 91.5928 49.2092 90.8681C48.9965 90.0175 48.7967 89.2104 47.6852 89.193C47.6678 89.193 47.6548 89.193 47.6374 89.193C45.397 89.193 43.3432 91.775 43.3215 91.8011C43.2477 91.8965 43.1131 91.9095 43.0176 91.8401C42.922 91.7663 42.9047 91.6318 42.9828 91.5364C43.074 91.4235 45.2363 88.7114 47.6939 88.7634C49.1397 88.7851 49.4133 89.883 49.6347 90.7683C49.8388 91.5928 49.9777 92.0224 50.5856 91.9703C51.302 91.9095 51.7623 91.276 52.2529 90.6077C52.8521 89.7875 53.5295 88.8546 54.7887 89.0151C56.1694 89.193 56.4386 90.2649 56.6166 90.9766C56.7556 91.532 56.825 91.6969 57.0118 91.6709C57.2071 91.6492 57.624 91.3107 58.0278 90.9809C59.3434 89.9047 61.5448 88.1082 63.5942 90.586C63.6723 90.6771 63.6593 90.816 63.5638 90.8898C63.4726 90.9679 63.3337 90.9549 63.2599 90.8594C61.484 88.7114 59.6473 90.2172 58.3057 91.315C57.7716 91.749 57.3895 92.0658 57.0639 92.1005C56.4733 92.1656 56.3257 91.5884 56.1998 91.0807C56.0218 90.3777 55.8264 89.5836 54.7409 89.4447C53.7379 89.3189 53.1908 90.0653 52.6133 90.8594C52.0879 91.5797 51.5452 92.3261 50.6334 92.3999C50.59 92.3999 50.5422 92.4042 50.5031 92.4042H50.4858Z" fill="#261D2A"/>
<path d="M34.2164 93.1722C34.173 93.1722 34.1252 93.1592 34.0862 93.1288C33.9906 93.0551 33.9733 92.9206 34.0427 92.8251L38.871 86.4634C38.9448 86.368 39.0794 86.3506 39.175 86.42C39.2705 86.4938 39.2879 86.6283 39.2184 86.7238L34.3901 93.0855C34.3467 93.1419 34.2816 93.1722 34.2164 93.1722Z" fill="#FDFDFF"/>
<path d="M37.2689 92.1606C37.2168 92.1606 37.1691 92.1432 37.1256 92.1085C37.0345 92.0304 37.0258 91.8916 37.1039 91.8004L39.0231 89.5699C39.1013 89.4788 39.2402 89.4701 39.3314 89.5482C39.4226 89.6264 39.4312 89.7652 39.3531 89.8563L37.4339 92.0868C37.3905 92.1389 37.3297 92.1606 37.2689 92.1606Z" fill="#FDFDFF"/>
<path d="M68.4837 90.3899C68.4359 90.3899 68.3882 90.3725 68.3491 90.3421C68.2536 90.2684 68.2362 90.1295 68.3144 90.0384L72.0789 85.2433C72.1527 85.1478 72.2873 85.1348 72.3828 85.2086C72.4783 85.2823 72.4957 85.4212 72.4219 85.5123L68.6574 90.3074C68.614 90.3638 68.5488 90.3899 68.488 90.3899H68.4837Z" fill="#FDFDFF"/>
<path d="M69.5343 91.8145C69.4909 91.8145 69.4431 91.8015 69.404 91.7711C69.3085 91.6973 69.2911 91.5628 69.3606 91.4674L71.549 88.5729C71.6228 88.4775 71.7574 88.4601 71.8529 88.5295C71.9484 88.6033 71.9658 88.7378 71.8963 88.8333L69.708 91.7277C69.6646 91.7841 69.5994 91.8145 69.5343 91.8145Z" fill="#FDFDFF"/>
</svg>
